<svg xmlns:dc="http://purl.org/dc/elements/1.1/" xmlns:cc="http://creativecommons.org/ns#" xmlns:rdf="http://www.w3.org/1999/02/22-rdf-syntax-ns#" xmlns:svg="http://www.w3.org/2000/svg" xmlns="http://www.w3.org/2000/svg" xmlns:sodipodi="http://sodipodi.sourceforge.net/DTD/sodipodi-0.dtd" xmlns:inkscape="http://www.inkscape.org/namespaces/inkscape" version="1.1" x="0px" y="0px" viewBox="0 0 100 100"><g transform="translate(0,-952.36218)"><g transform="translate(11.005906,963.33265)" fill="#E6453A" stroke="#4F3333" stroke-width="1.9"><path d="M 39.01181,0.03543307 C 17.503937,0.03543307 0,17.433071 0,38.976377 c 0,21.543307 17.503937,39.047244 39.01181,39.047244 21.507874,0 38.976378,-17.503937 38.976378,-39.047244 0,-21.543306 -17.468504,-38.94094393 -38.976378,-38.94094393 z m -8.007874,2.83464563 0,6.0944881 c 0,1.5236222 1.062993,2.7283462 2.515748,3.6141732 1.452756,0.850394 3.330709,1.417323 5.492126,1.417323 2.161418,0 4.074803,-0.531496 5.492126,-1.417323 1.452756,-0.850394 2.480315,-2.090551 2.480315,-3.6141732 l 0,-6.0944881 c 7.547244,1.6653543 14.244094,5.6338582 19.27559,11.1259843 l -5.279527,3.082677 c -1.311024,0.744094 -1.84252,2.267716 -1.877953,3.968504 -0.03543,1.665354 0.46063,3.57874 1.523622,5.456693 1.098425,1.629921 2.480315,3.224409 3.968504,4.074803 1.452756,0.81496 3.082677,1.098425 4.393701,0.35433 l 5.279527,-3.082677 c 1.098425,3.507874 1.665354,7.26378 1.665354,11.125984 0,3.897638 -0.602362,7.653543 -1.700787,11.19685 l -5.244094,-3.047244 c -1.594488,-0.708661 -3.082677,-0.248031 -4.429134,0.389764 -1.452756,0.814961 -2.870079,2.196851 -3.968504,4.03937 -1.062992,1.877953 -1.559055,3.791339 -1.523622,5.456693 0.03543,1.665354 0.602362,3.188976 1.913386,3.968504 l 5.244094,3.047244 c -5.031496,5.492126 -11.692913,9.46063 -19.240157,11.125984 l 0,-6.094488 c 0,-1.523622 -1.027559,-2.728347 -2.480315,-3.614173 -1.417323,-0.850394 -3.330708,-1.38189 -5.492126,-1.417323 -2.161417,0.03543 -4.03937,0.566929 -5.492126,1.417323 -1.452755,0.885826 -2.515748,2.090551 -2.515748,3.614173 l 0,6.094488 C 23.456692,73.488188 16.795275,69.519684 11.728346,64.027558 l 5.244095,-3.047244 c 1.27559,-0.779528 1.842519,-2.30315 1.877952,-3.968504 0.03543,-1.665354 -0.46063,-3.57874 -1.523622,-5.456693 C 16.228346,49.960629 14.881889,48.330708 13.358267,47.480314 11.870079,46.62992 10.417323,46.594487 8.9999998,47.09055 7.2637794,48.118109 5.4921259,49.145668 3.7204724,50.173227 2.5866141,46.62992 1.9842519,42.874015 1.9842519,38.976377 c 0,-3.862204 0.6023622,-7.582677 1.7007874,-11.090551 l 5.2795275,3.047244 c 1.3110232,0.744095 2.9055122,0.46063 4.3582672,-0.35433 1.488189,-0.814961 2.905512,-2.161418 3.968504,-4.03937 1.062992,-1.877953 1.559055,-3.826772 1.559055,-5.492126 -0.03543,-1.700788 -0.602362,-3.22441 -1.877952,-3.968504 L 11.692913,13.996063 C 16.688976,8.4330707 24.094488,4.03937 31.003936,2.8700787 z M 38.976377,18 C 27.389763,18 18,27.389763 18,38.976377 c 0,11.622047 9.389763,21.047244 20.976377,21.047244 11.586614,0 20.976378,-9.425197 20.976378,-21.047244 C 59.952755,27.389763 50.562991,18 38.976377,18 z" /></g></g></svg>