<svg id="Calque_1" data-name="Calque 1" xmlns="http://www.w3.org/2000/svg" viewBox="0 0 226.29 176.23"><defs><style>.cls-1{fill:#b7aca2;}.cls-2{fill:#6d1d1d;}.cls-3{fill:#b34640;}.cls-4{fill:#ece7da;}.cls-5{fill:#8e2825;}.cls-6{fill:#a4342e;}.cls-7{fill:#ceb7a1;}.cls-8{fill:#e8d9c9;}</style></defs><title>poker</title><path class="cls-1" d="M82.5,129.72a113.58,113.58,0,0,1-22.36-7.25v14.94a149.6,149.6,0,0,0,23.11,7v-14.5Z"/><path class="cls-2" d="M60.14,122.47c-17-7.62-29.1-18.88-33.1-31.84v20.08c2,4.11,6.11,10.35,14.39,16.78,4,3.07,10.44,6.64,18.71,9.92V122.47Z"/><path class="cls-2" d="M198.33,86.83c-2.35,13-12.78,24.51-28.23,32.79V135c25.6-13.56,28.48-31.56,28.48-31.56l.26-22.21A30.78,30.78,0,0,1,198.33,86.83Z"/><path class="cls-2" d="M148.37,128.14a137.21,137.21,0,0,1-36.15,4.7,140.1,140.1,0,0,1-29-3v14.5c19.27,4.16,42.46,5.36,65.28-1l.67-.19V127.9C148.92,128,148.65,128.07,148.37,128.14Z"/><path class="cls-1" d="M169.67,119.85a104.3,104.3,0,0,1-20.47,8.05v15.3a106.91,106.91,0,0,0,20.9-8.2V119.62Z"/><path class="cls-3" d="M60.14,122.47l8.59-8.85c1.35-1.39,4.36-1.88,6.69-1.07L89,117.21c2.33.8,3.14,2.59,1.79,4l-8.26,8.53.75.15a140.1,140.1,0,0,0,29,3,137.21,137.21,0,0,0,36.15-4.7L139.15,120c-1.51-1.33-.91-3.16,1.33-4l13-5.2c2.24-.9,5.3-.54,6.8.79l9.41,8.34.43-.23c15.45-8.28,25.88-19.81,28.23-32.79H182.2c-2.69,0-4.9-1.31-4.9-2.91V74.59c0-1.6,2.21-2.92,4.9-2.92h15.16c-4.1-13-16.41-24.33-33.61-31.93l-8.55,8.82c-1.35,1.39-4.36,1.87-6.69,1.06L135,45c-2.33-.8-3.14-2.59-1.79-4l8.12-8.38a140.31,140.31,0,0,0-29.07-3,137.39,137.39,0,0,0-35.3,4.47l9,7.93c1.51,1.33.91,3.16-1.33,4l-13,5.2c-2.24.9-5.3.54-6.8-.79l-9.3-8.24c-15.91,8.23-26.72,19.86-29.28,33H42.44c2.69,0,4.89,1.32,4.89,2.92v9.33c0,1.6-2.2,2.91-4.89,2.91H27a1.83,1.83,0,0,0,.08.25C31,103.59,43.16,114.85,60.14,122.47Zm64.52,1.75a4.75,4.75,0,0,1-4.74,4.74H108.76a4.75,4.75,0,0,1-4.74-4.74V121.4a4.75,4.75,0,0,1,4.74-4.74h11.16a4.75,4.75,0,0,1,4.74,4.74Zm60.44-26.7c2.28.78,3.09,2.52,1.79,3.88l-5.49,5.74c-1.3,1.37-4.24,1.85-6.52,1.07l-9.64-3.27c-2.28-.77-3.08-2.52-1.78-3.88l5.48-5.74c1.3-1.36,4.24-1.84,6.52-1.07Zm-22.5-42,9.28-3.62c2.2-.86,5.17-.49,6.62.82l6.07,5.52c1.45,1.31.83,3.08-1.37,3.94l-9.28,3.63c-2.19.85-5.17.49-6.61-.82l-6.08-5.53C159.79,58.18,160.41,56.41,162.6,55.55ZM99.73,36.81a4.75,4.75,0,0,1,4.74-4.74h11.16a4.75,4.75,0,0,1,4.74,4.74v2.82a4.75,4.75,0,0,1-4.74,4.74H104.47a4.75,4.75,0,0,1-4.74-4.74ZM40,63.83c-2.28-.78-3.08-2.53-1.78-3.89l5.48-5.74C45,52.84,48,52.36,50.25,53.14l9.64,3.27c2.28.77,3.09,2.52,1.79,3.88L56.19,66c-1.3,1.36-4.24,1.84-6.52,1.07ZM54.39,78.11c.07,0,.08-.08,0-.12l.07-.06a23.15,23.15,0,0,1,3.27-8.8l-.06-.06c.14-.25.27-.5.4-.75a41.78,41.78,0,0,1,6.16-7q.15,0,.12-.09l.54-.17a51.18,51.18,0,0,1,9.82-6.39l0-.09a.13.13,0,0,0,.08-.16l1-.54A87.07,87.07,0,0,1,87,49.53a.15.15,0,0,0,.18,0h.61l.12.09a88.31,88.31,0,0,1,14.26-2.68l.11-.14a.24.24,0,0,0,.21-.12l1.3-.17a120.71,120.71,0,0,1,13.32-.31.18.18,0,0,0,.2,0l.51.2a.65.65,0,0,1,0,.13,93.25,93.25,0,0,1,14.69,2l.3-.12a.47.47,0,0,0,.29,0l1.26.26A91.92,91.92,0,0,1,146,52.52s.06.08.15.07l.27.33h0A57.17,57.17,0,0,1,157.3,59s.09,0,.15,0l.9.59a46.61,46.61,0,0,1,7,6.75s0,.09.08.11l0,.33A25.13,25.13,0,0,1,169.89,76v0l0,.15a21.13,21.13,0,0,1,.58,4.83s0,.06,0,.09a18.44,18.44,0,0,1-.13,2.87c-.08,0-.09.07,0,.11l-.08.08c-2.67,17.65-27.56,31.49-57.89,31.49-32.1,0-58.13-15.51-58.13-34.64,0-.53,0-1.07.07-1.6S54.34,78.54,54.39,78.11ZM40,100.08l9.28-3.62c2.2-.86,5.17-.49,6.61.82L62,102.8c1.44,1.31.83,3.09-1.37,4l-9.28,3.62c-2.19.86-5.17.49-6.61-.82L38.63,104C37.19,102.71,37.81,100.94,40,100.08Z"/><path class="cls-4" d="M177.3,74.59v9.33c0,1.6,2.21,2.91,4.9,2.91h16.13a30.78,30.78,0,0,0,.51-5.6,31.87,31.87,0,0,0-1.48-9.56H182.2C179.51,71.67,177.3,73,177.3,74.59Z"/><path class="cls-4" d="M42.44,90.38c2.69,0,4.89-1.31,4.89-2.91V78.14c0-1.6-2.2-2.92-4.89-2.92H26.18A31.45,31.45,0,0,0,27,90.38Z"/><path class="cls-4" d="M71.56,51.27l13-5.2c2.24-.89,2.84-2.72,1.33-4l-9-7.93a106,106,0,0,0-21.46,8.15l9.3,8.24C66.26,51.81,69.32,52.17,71.56,51.27Z"/><path class="cls-4" d="M153.46,110.72l-13,5.2c-2.24.89-2.84,2.72-1.33,4l9.22,8.17c.28-.07.55-.16.83-.24a104.3,104.3,0,0,0,20.47-8.05l-9.41-8.34C158.76,110.18,155.7,109.82,153.46,110.72Z"/><path class="cls-4" d="M90.76,121.19c1.35-1.39.54-3.18-1.79-4l-13.55-4.66c-2.33-.81-5.34-.32-6.69,1.07l-8.59,8.85h0a113.58,113.58,0,0,0,22.36,7.25Z"/><path class="cls-4" d="M135,45l13.55,4.66c2.33.81,5.34.33,6.69-1.06l8.55-8.82a114.74,114.74,0,0,0-22.46-7.14L133.17,41C131.82,42.37,132.63,44.16,135,45Z"/><path class="cls-5" d="M54.24,81c0,19.13,26,34.64,58.13,34.64,30.33,0,55.22-13.84,57.89-31.49l-.25.23a12.49,12.49,0,0,1-2.8.05c-.58-.05-1-.22-1.17-.59h0l.05-.17a19.22,19.22,0,0,0-.47-7.35c-.37-1,.5-1.28,1.93-1.3.45,0,.9,0,1.35-.07l.53.16a.27.27,0,0,0,.2.12l.27.74a25.13,25.13,0,0,0-4.47-9.15v0a8.89,8.89,0,0,1-2.39.87,1.89,1.89,0,0,1-1.5-.16h0l-.1-.16a35.2,35.2,0,0,0-6.54-6.24c-1.13-.73-.63-1.25.59-1.7.39-.13.74-.3,1.11-.46l.59,0a.59.59,0,0,0,.13,0,57.17,57.17,0,0,0-10.89-6.09A4.57,4.57,0,0,1,145,54.37a1.73,1.73,0,0,1-1.45.28h0l-.22-.11A70.24,70.24,0,0,0,132.59,51c-1.57-.31-1.56-.91-.85-1.65a8.3,8.3,0,0,0,.6-.73l.2-.07a93.25,93.25,0,0,0-14.69-2,2.66,2.66,0,0,1,.06,1.53c-.08.35-.36.62-1,.7h0l-.28,0a88.94,88.94,0,0,0-12.33.31c-1.62.22-2.14-.29-2.18-1.14a7.58,7.58,0,0,0-.13-.81l.15-.18A88.31,88.31,0,0,0,87.9,49.59a5,5,0,0,1,1.38,1.32c.22.32.21.64-.25.9h0l-.27.06a65.78,65.78,0,0,0-10.36,4,2.18,2.18,0,0,1-2.86-.33,8.54,8.54,0,0,0-.79-.65l0-.27A51.18,51.18,0,0,0,64.91,61h0a10,10,0,0,1,2.48.78c.47.21.72.49.53.86h0l-.18.13a31.15,31.15,0,0,0-5.67,6.54c-.48,1-1.48,1-2.74.56-.4-.13-.83-.22-1.24-.33l-.33-.3a.15.15,0,0,0,0-.11,23.15,23.15,0,0,0-3.27,8.8l.26-.25a13.08,13.08,0,0,1,2.8-.07c.58,0,1,.21,1.18.58h0l0,.17a19.3,19.3,0,0,0,.64,7.35c.39,1-.47,1.28-1.9,1.31-.45,0-.9,0-1.35.08l-.54-.15a.31.31,0,0,0-.2-.13L55,86a28.26,28.26,0,0,1-.72-6.64C54.27,79.93,54.24,80.47,54.24,81Zm15.57,21.29c-.39.14-.74.31-1.11.47l-.59,0a.5.5,0,0,0-.28,0l-.9-.58a47.33,47.33,0,0,1-7.12-6.72c0-.05,0-.09-.07-.11l0-.36a9.87,9.87,0,0,1,2.38-.89,1.91,1.91,0,0,1,1.51.16h0l.1.16a35.38,35.38,0,0,0,6.63,6.21C71.51,101.31,71,101.84,69.81,102.29Zm23.78,9.79c-.21.24-.38.49-.57.73l-.5.2a.41.41,0,0,0-.29,0L91,112.8A93.44,93.44,0,0,1,79.25,109c0-.05-.06-.08-.16-.07l-.27-.32a4.43,4.43,0,0,1,1.35-1.47,1.74,1.74,0,0,1,1.44-.3h0l.22.11a70.54,70.54,0,0,0,10.87,3.49C94.28,110.74,94.29,111.34,93.59,112.08Zm28.48,2.5a.27.27,0,0,0-.21.12l-1.31.17a120.71,120.71,0,0,1-13.32.27.18.18,0,0,0-.2,0l-.51-.2a2.66,2.66,0,0,1-.08-1.67c.09-.34.36-.61,1-.69h0l.28,0a89.08,89.08,0,0,0,12.34-.27c1.62-.22,2.14.29,2.17,1.15a7.36,7.36,0,0,0,.12.8Zm27-7.28-1,.53A90,90,0,0,1,136.74,112a.16.16,0,0,0-.19,0l-.61,0a4.94,4.94,0,0,1-1.45-1.43c-.21-.32-.19-.64.28-.89h0l.27-.05a67.06,67.06,0,0,0,10.5-3.87,2.15,2.15,0,0,1,2.84.36c.23.23.51.44.77.66l0,.36C149.1,107.18,149.07,107.24,149.09,107.3Zm17-14.81.33.29c0,.06,0,.12.07.17l-.42.76a42.51,42.51,0,0,1-6.37,7c-.09,0-.14,0-.12.1l-.55.16a9.61,9.61,0,0,1-2.46-.81c-.45-.21-.7-.49-.5-.86h0l.19-.13a31.7,31.7,0,0,0,5.85-6.48c.51-.94,1.52-.94,2.77-.53C165.25,92.27,165.67,92.37,166.08,92.49Zm-107-11.83C59.08,63.19,82.85,49,112.18,49s53.1,14.17,53.1,31.64-23.77,31.64-53.1,31.64S59.08,98.13,59.08,80.66Z"/><path class="cls-5" d="M170.5,81.09s0-.06,0-.09a21.13,21.13,0,0,0-.58-4.83A31.43,31.43,0,0,1,170.5,81.09Z"/><ellipse class="cls-6" cx="112.18" cy="80.66" rx="53.1" ry="31.64"/><path class="cls-7" d="M156.58,59c-.37.16-.72.33-1.11.46-1.22.45-1.72,1-.59,1.7a35.2,35.2,0,0,1,6.54,6.24l.1.16h0a1.89,1.89,0,0,0,1.5.16,8.89,8.89,0,0,0,2.39-.87v0l0-.33c-.09,0-.12-.06-.08-.11a46.61,46.61,0,0,0-7-6.75l-.9-.59c-.06,0-.1,0-.15,0a.59.59,0,0,1-.13,0Z"/><path class="cls-7" d="M169.42,75.12l-.53-.16c-.45,0-.9.07-1.35.07-1.43,0-2.3.33-1.93,1.3a19.22,19.22,0,0,1,.47,7.35l-.05.17h0c.14.37.59.54,1.17.59a12.49,12.49,0,0,0,2.8-.05l.25-.23.08-.08c-.06,0-.05-.08,0-.11a18.44,18.44,0,0,0,.13-2.87,31.43,31.43,0,0,0-.57-4.92l0-.15v0l-.27-.74A.27.27,0,0,1,169.42,75.12Z"/><path class="cls-7" d="M162.09,92.67a31.7,31.7,0,0,1-5.85,6.48l-.19.13h0c-.2.37.05.65.5.86a9.61,9.61,0,0,0,2.46.81l.55-.16c0-.06,0-.09.12-.1a42.51,42.51,0,0,0,6.37-7l.42-.76c-.07,0-.1-.11-.07-.17l-.33-.29c-.41-.12-.83-.22-1.22-.35C163.61,91.73,162.6,91.73,162.09,92.67Z"/><path class="cls-7" d="M148.37,106.12a2.15,2.15,0,0,0-2.84-.36,67.06,67.06,0,0,1-10.5,3.87l-.27.05h0c-.47.25-.49.57-.28.89a4.94,4.94,0,0,0,1.45,1.43l.61,0a.16.16,0,0,1,.19,0,90,90,0,0,0,11.36-4.16l1-.53c0-.06,0-.12.09-.16l0-.36C148.88,106.56,148.6,106.35,148.37,106.12Z"/><path class="cls-7" d="M120,112.31a89.08,89.08,0,0,1-12.34.27l-.28,0h0c-.63.08-.9.35-1,.69a2.66,2.66,0,0,0,.08,1.67l.51.2a.18.18,0,0,1,.2,0,120.71,120.71,0,0,0,13.32-.27l1.31-.17a.27.27,0,0,1,.21-.12l.26-.32a7.36,7.36,0,0,1-.12-.8C122.18,112.6,121.66,112.09,120,112.31Z"/><path class="cls-7" d="M92.7,110.44A70.54,70.54,0,0,1,81.83,107l-.22-.11h0a1.74,1.74,0,0,0-1.44.3,4.43,4.43,0,0,0-1.35,1.47l.27.32c.1,0,.15,0,.16.07A93.44,93.44,0,0,0,91,112.8l1.26.25a.41.41,0,0,1,.29,0l.5-.2c.19-.24.36-.49.57-.73C94.29,111.34,94.28,110.74,92.7,110.44Z"/><path class="cls-7" d="M70.38,100.59a35.38,35.38,0,0,1-6.63-6.21l-.1-.16h0a1.91,1.91,0,0,0-1.51-.16,9.87,9.87,0,0,0-2.38.89l0,.36c.08,0,.11.06.07.11a47.33,47.33,0,0,0,7.12,6.72l.9.58a.5.5,0,0,1,.28,0l.59,0c.37-.16.72-.33,1.11-.47C71,101.84,71.51,101.31,70.38,100.59Z"/><path class="cls-7" d="M55,86l.3.77a.31.31,0,0,1,.2.13l.54.15c.45,0,.9-.07,1.35-.08,1.43,0,2.29-.35,1.9-1.31a19.3,19.3,0,0,1-.64-7.35l0-.17h0c-.15-.37-.6-.53-1.18-.58a13.08,13.08,0,0,0-2.8.07l-.26.25-.07.06c.06,0,.05.08,0,.12,0,.43-.07.86-.08,1.29A28.26,28.26,0,0,0,55,86Z"/><path class="cls-7" d="M57.77,69.24l.33.3c.41.11.84.2,1.24.33,1.26.4,2.26.39,2.74-.56a31.15,31.15,0,0,1,5.67-6.54l.18-.13h0c.19-.37-.06-.65-.53-.86A10,10,0,0,0,64.91,61h0l-.54.17q0,.09-.12.09a41.78,41.78,0,0,0-6.16,7c-.13.25-.26.5-.4.75l.06.06A.15.15,0,0,1,57.77,69.24Z"/><path class="cls-7" d="M75.55,55.54a2.18,2.18,0,0,0,2.86.33,65.78,65.78,0,0,1,10.36-4l.27-.06h0c.46-.26.47-.58.25-.9a5,5,0,0,0-1.38-1.32l-.12-.09h-.61a.15.15,0,0,1-.18,0,87.07,87.07,0,0,0-11.22,4.3l-1,.54a.13.13,0,0,1-.08.16l0,.09,0,.27A8.54,8.54,0,0,1,75.55,55.54Z"/><path class="cls-7" d="M102.14,47.9c0,.85.56,1.36,2.18,1.14a88.94,88.94,0,0,1,12.33-.31l.28,0h0c.63-.08.91-.35,1-.7a2.66,2.66,0,0,0-.06-1.53.65.65,0,0,0,0-.13l-.51-.2a.18.18,0,0,1-.2,0,120.71,120.71,0,0,0-13.32.31l-1.3.17a.24.24,0,0,1-.21.12l-.11.14-.15.18A7.58,7.58,0,0,1,102.14,47.9Z"/><path class="cls-7" d="M131.74,49.31c-.71.74-.72,1.34.85,1.65a70.24,70.24,0,0,1,10.78,3.59l.22.11h0a1.73,1.73,0,0,0,1.45-.28,4.57,4.57,0,0,0,1.38-1.44h0l-.27-.33c-.09,0-.14,0-.15-.07a91.92,91.92,0,0,0-11.61-3.9l-1.26-.26a.47.47,0,0,1-.29,0l-.3.12-.2.07A8.3,8.3,0,0,1,131.74,49.31Z"/><path class="cls-6" d="M104.47,44.37h11.16a4.75,4.75,0,0,0,4.74-4.74V36.81a4.75,4.75,0,0,0-4.74-4.74H104.47a4.75,4.75,0,0,0-4.74,4.74v2.82A4.75,4.75,0,0,0,104.47,44.37ZM116.1,34c1.09,0,2,.53,2,1.18s-.89,1.17-2,1.17-2-.52-2-1.17S115,34,116.1,34Zm0,3.24c1.09,0,2,.52,2,1.18s-.89,1.17-2,1.17-2-.52-2-1.17S115,37.2,116.1,37.2Zm0,3.24c1.09,0,2,.52,2,1.17s-.89,1.18-2,1.18-2-.53-2-1.18S115,40.44,116.1,40.44ZM104,34c1.09,0,2,.53,2,1.18s-.89,1.18-2,1.18-2-.53-2-1.18S102.92,34,104,34Zm0,3.24c1.09,0,2,.53,2,1.18s-.89,1.18-2,1.18-2-.53-2-1.18S102.92,37.2,104,37.2Zm0,3.24c1.09,0,2,.53,2,1.18s-.89,1.17-2,1.17-2-.52-2-1.17S102.92,40.44,104,40.44Z"/><ellipse class="cls-8" cx="104.01" cy="35.14" rx="1.98" ry="1.18"/><path class="cls-8" d="M104,39.56c1.09,0,2-.53,2-1.18s-.89-1.18-2-1.18-2,.53-2,1.18S102.92,39.56,104,39.56Z"/><path class="cls-8" d="M104,42.79c1.09,0,2-.52,2-1.17s-.89-1.18-2-1.18-2,.53-2,1.18S102.92,42.79,104,42.79Z"/><path class="cls-8" d="M116.1,36.31c1.09,0,2-.52,2-1.17s-.89-1.18-2-1.18-2,.53-2,1.18S115,36.31,116.1,36.31Z"/><path class="cls-8" d="M116.1,39.55c1.09,0,2-.52,2-1.17s-.89-1.18-2-1.18-2,.52-2,1.18S115,39.55,116.1,39.55Z"/><path class="cls-8" d="M116.1,42.79c1.09,0,2-.53,2-1.18s-.89-1.17-2-1.17-2,.52-2,1.17S115,42.79,116.1,42.79Z"/><path class="cls-6" d="M119.92,116.66H108.76A4.75,4.75,0,0,0,104,121.4v2.82a4.75,4.75,0,0,0,4.74,4.74h11.16a4.75,4.75,0,0,0,4.74-4.74V121.4A4.75,4.75,0,0,0,119.92,116.66ZM114.34,124c-1.09,0-2-.53-2-1.18s.89-1.18,2-1.18,2,.53,2,1.18S115.43,124,114.34,124Z"/><path class="cls-8" d="M114.34,121.63c-1.09,0-2,.53-2,1.18s.89,1.18,2,1.18,2-.53,2-1.18S115.43,121.63,114.34,121.63Z"/><path class="cls-6" d="M168.94,95.32l-5.48,5.74c-1.3,1.36-.5,3.11,1.78,3.88l9.64,3.27c2.28.78,5.22.3,6.52-1.07l5.49-5.74c1.3-1.36.49-3.1-1.79-3.88l-9.64-3.27C173.18,93.48,170.24,94,168.94,95.32Zm.46,8.1a2.81,2.81,0,0,1-2.69.44c-1-.32-1.28-1-.74-1.61a2.81,2.81,0,0,1,2.69-.44C169.61,102.13,169.94,102.85,169.4,103.42Zm12-4.22a2.78,2.78,0,0,1,2.7-.44c.95.32,1.28,1,.74,1.6a2.81,2.81,0,0,1-2.7.44C181.18,100.48,180.85,99.76,181.39,99.2Zm-4.5,2.61a2.78,2.78,0,0,1-2.7.44c-.95-.32-1.28-1-.74-1.6a2.78,2.78,0,0,1,2.7-.44C177.1,100.53,177.43,101.25,176.89,101.81Z"/><path class="cls-8" d="M168.66,101.81a2.81,2.81,0,0,0-2.69.44c-.54.57-.21,1.29.74,1.61a2.81,2.81,0,0,0,2.69-.44C169.94,102.85,169.61,102.13,168.66,101.81Z"/><path class="cls-8" d="M173.45,100.65c-.54.56-.21,1.28.74,1.6a2.78,2.78,0,0,0,2.7-.44c.54-.56.21-1.28-.74-1.6A2.78,2.78,0,0,0,173.45,100.65Z"/><path class="cls-8" d="M182.13,100.8a2.81,2.81,0,0,0,2.7-.44c.54-.56.21-1.28-.74-1.6a2.78,2.78,0,0,0-2.7.44C180.85,99.76,181.18,100.48,182.13,100.8Z"/><path class="cls-6" d="M56.19,66l5.49-5.74c1.3-1.36.49-3.11-1.79-3.88l-9.64-3.27c-2.28-.78-5.21-.3-6.52,1.06l-5.48,5.74c-1.3,1.36-.5,3.11,1.78,3.89l9.64,3.27C52,67.87,54.89,67.39,56.19,66Zm0-8a2.83,2.83,0,0,1,2.7-.44c.95.32,1.28,1,.74,1.61a2.83,2.83,0,0,1-2.7.44C56,59.37,55.64,58.65,56.18,58.08ZM52.9,63.9c1,.32,1.28,1,.74,1.61a2.83,2.83,0,0,1-2.7.44c-.95-.32-1.28-1-.74-1.61A2.83,2.83,0,0,1,52.9,63.9Zm-8.71-1.6a2.76,2.76,0,0,1-2.69.44c-1-.32-1.28-1-.74-1.6a2.77,2.77,0,0,1,2.69-.44C44.4,61,44.73,61.74,44.19,62.3Zm3.29-5.82c-.95-.32-1.28-1-.74-1.6a2.77,2.77,0,0,1,2.69-.44c1,.32,1.28,1,.74,1.6A2.76,2.76,0,0,1,47.48,56.48Z"/><path class="cls-8" d="M43.45,60.7a2.77,2.77,0,0,0-2.69.44c-.54.56-.21,1.28.74,1.6a2.76,2.76,0,0,0,2.69-.44C44.73,61.74,44.4,61,43.45,60.7Z"/><path class="cls-8" d="M50.94,66a2.83,2.83,0,0,0,2.7-.44c.54-.57.21-1.29-.74-1.61a2.83,2.83,0,0,0-2.7.44C49.66,64.91,50,65.63,50.94,66Z"/><path class="cls-8" d="M49.43,54.44a2.77,2.77,0,0,0-2.69.44c-.54.56-.21,1.28.74,1.6A2.76,2.76,0,0,0,50.17,56C50.71,55.48,50.38,54.76,49.43,54.44Z"/><path class="cls-8" d="M56.92,59.69a2.83,2.83,0,0,0,2.7-.44c.54-.57.21-1.29-.74-1.61a2.83,2.83,0,0,0-2.7.44C55.64,58.65,56,59.37,56.92,59.69Z"/><path class="cls-6" d="M167.31,65c1.44,1.31,4.42,1.67,6.61.82l9.28-3.63c2.2-.86,2.82-2.63,1.37-3.94l-6.07-5.52c-1.45-1.31-4.42-1.68-6.62-.82l-9.28,3.62c-2.19.86-2.81,2.63-1.37,3.94Zm12.15-5.8a2.87,2.87,0,0,1,2.74.34c.6.54.34,1.27-.57,1.63a2.92,2.92,0,0,1-2.74-.34C178.29,60.3,178.55,59.57,179.46,59.22Zm-15.72-2.47a2.9,2.9,0,0,1,2.74.33c.6.55.34,1.28-.57,1.64a2.92,2.92,0,0,1-2.74-.34C162.57,57.83,162.83,57.1,163.74,56.75Z"/><path class="cls-8" d="M165.91,58.72c.91-.36,1.17-1.09.57-1.64a2.9,2.9,0,0,0-2.74-.33c-.91.35-1.17,1.08-.57,1.63A2.92,2.92,0,0,0,165.91,58.72Z"/><path class="cls-8" d="M181.63,61.19c.91-.36,1.17-1.09.57-1.63a2.87,2.87,0,0,0-2.74-.34c-.91.35-1.17,1.08-.57,1.63A2.92,2.92,0,0,0,181.63,61.19Z"/><path class="cls-6" d="M44.71,109.55c1.44,1.31,4.42,1.68,6.61.82l9.28-3.62c2.2-.86,2.81-2.64,1.37-4l-6.08-5.52c-1.44-1.31-4.41-1.68-6.61-.82L40,100.08c-2.19.86-2.81,2.63-1.37,3.94Zm12.15-5.8a2.87,2.87,0,0,1,2.74.34c.6.54.34,1.27-.57,1.63a2.9,2.9,0,0,1-2.74-.34C55.69,104.84,56,104.11,56.86,103.75Zm-6.63-6a2.87,2.87,0,0,1,2.74.34c.6.54.34,1.27-.57,1.63a2.92,2.92,0,0,1-2.74-.34C49.06,98.81,49.32,98.08,50.23,97.73Zm-1,4.7a2.85,2.85,0,0,1,2.73.34c.6.54.35,1.27-.57,1.63a2.9,2.9,0,0,1-2.73-.34C48.05,103.51,48.3,102.78,49.22,102.43Zm-1.45,4.87a2.9,2.9,0,0,1,2.74.34c.6.54.34,1.27-.57,1.63a2.87,2.87,0,0,1-2.74-.34C46.6,108.39,46.86,107.66,47.77,107.3Zm-6.63-6a2.87,2.87,0,0,1,2.74.34c.59.54.34,1.27-.57,1.63a2.92,2.92,0,0,1-2.74-.34C40,102.36,40.22,101.63,41.14,101.28Z"/><path class="cls-8" d="M52.4,99.7c.91-.36,1.17-1.09.57-1.63a2.87,2.87,0,0,0-2.74-.34c-.91.35-1.17,1.08-.57,1.63A2.92,2.92,0,0,0,52.4,99.7Z"/><path class="cls-8" d="M43.31,103.25c.91-.36,1.16-1.09.57-1.63a2.87,2.87,0,0,0-2.74-.34c-.92.35-1.17,1.08-.57,1.63A2.92,2.92,0,0,0,43.31,103.25Z"/><path class="cls-8" d="M59,105.72c.91-.36,1.17-1.09.57-1.63a2.87,2.87,0,0,0-2.74-.34c-.91.36-1.17,1.09-.57,1.63A2.9,2.9,0,0,0,59,105.72Z"/><path class="cls-8" d="M51.38,104.4c.92-.36,1.17-1.09.57-1.63a2.85,2.85,0,0,0-2.73-.34c-.92.35-1.17,1.08-.57,1.63A2.9,2.9,0,0,0,51.38,104.4Z"/><path class="cls-8" d="M49.94,109.27c.91-.36,1.17-1.09.57-1.63a2.9,2.9,0,0,0-2.74-.34c-.91.36-1.17,1.09-.57,1.63A2.87,2.87,0,0,0,49.94,109.27Z"/></svg>