<svg id="Calque_1" data-name="Calque 1" xmlns="http://www.w3.org/2000/svg" viewBox="0 0 226.29 176.23"><defs><style>.cls-1{fill:#b7aca2;}.cls-2{fill:#6d1d1d;}.cls-3{fill:#b34640;}.cls-4{fill:#ece7da;}.cls-5{fill:#a4342e;}.cls-6{fill:#e8d9c9;}.cls-7{fill:#8e2825;}.cls-8{fill:#ceb7a1;}</style></defs><title>poker</title><path class="cls-1" d="M49.92,142.66c-1-.57-1.91-1.15-2.84-1.75A62.85,62.85,0,0,1,41,137.24V153a84.56,84.56,0,0,0,17.73,9.18c1.56.62,3.19,1.22,4.88,1.82V149.24A58.29,58.29,0,0,1,49.92,142.66Z"/><path class="cls-2" d="M129.31,156.39a144.36,144.36,0,0,1-18.49,1.18c-10.45,0-29.33-1.58-47.2-8.33V164a151.44,151.44,0,0,0,18.23,5.14,144.81,144.81,0,0,0,47.46,2.51V156.39Z"/><path class="cls-1" d="M196.93,111.57a1.6,1.6,0,0,1-.05.21c0,.3-.12.61-.19.93l0,.13c-1.38,6-5.19,14.91-15.67,23.39-.45.4-.91.79-1.38,1.18v15.33c15.54-12,17.56-24.57,17.56-24.57l.26-21a29.91,29.91,0,0,1-.5,4.36Z"/><path class="cls-2" d="M150.54,151.36v15.76a104,104,0,0,0,18.16-7.39,75.74,75.74,0,0,0,10.91-7V137.41A66.27,66.27,0,0,1,150.54,151.36Z"/><polygon class="cls-1" points="129.31 156.39 129.31 156.39 129.31 156.39 129.31 156.39"/><path class="cls-1" d="M146.93,152.84l0,0-.55.14a85,85,0,0,1-17.11,3.38v15.22a120.06,120.06,0,0,0,17.82-3.49l.67-.19c.93-.26,1.84-.54,2.74-.81V151.36A33.59,33.59,0,0,1,146.93,152.84Z"/><path class="cls-3" d="M47.08,140.91c.93.6,1.87,1.18,2.84,1.75l-2.21-1.41Z"/><path class="cls-3" d="M128.69,155.46A144.81,144.81,0,0,1,81.23,153a155.17,155.17,0,0,1-15-4l-2.62.34c17.87,6.75,36.75,8.33,47.2,8.33a144.36,144.36,0,0,0,18.49-1.18v-1Z"/><path class="cls-3" d="M181,136.23c-.41.33-.83.67-1.26,1l.05-1.28-.17.14v1.32C180.08,137,180.54,136.63,181,136.23Z"/><path class="cls-3" d="M196.93,111.57h0c0,.07,0,.14-.05.21A1.6,1.6,0,0,0,196.93,111.57Z"/><path class="cls-3" d="M150.94,150.64l-.4.72a66.27,66.27,0,0,0,29.07-14v-1.32l-.62.5a76.61,76.61,0,0,1-10.91,7A104.39,104.39,0,0,1,150.94,150.64Z"/><path class="cls-3" d="M147,152.87l0,0-.51.17Z"/><path class="cls-3" d="M130.13,155.26l-.82.12v1h0Z"/><path class="cls-4" d="M197.44,106a31.34,31.34,0,0,0-.73-6.64l-.08,6.63Z"/><path class="cls-4" d="M197.44,106v1.25C197.45,106.61,197.44,106.19,197.44,106Z"/><path class="cls-4" d="M196.56,111.57h.37a29.91,29.91,0,0,0,.5-4.36V106h-.81Z"/><path class="cls-4" d="M181,136.23c10.48-8.48,14.29-17.41,15.67-23.39C195,119.8,189.61,128.63,181,136.23Z"/><path class="cls-4" d="M181,136.23c8.62-7.6,14-16.43,15.67-23.39l0-.13c.07-.32.14-.63.19-.93,0-.07,0-.14.05-.21h-.37V112s-2,12.1-16.78,23.93l-.05,1.28C180.16,136.9,180.58,136.56,181,136.23Z"/><path class="cls-4" d="M150.54,150.77v.59l.4-.72Z"/><path class="cls-4" d="M129.31,156.39A85,85,0,0,0,146.42,153a131.82,131.82,0,0,1-17.11,3.38Z"/><path class="cls-4" d="M149.93,151l-2.75.82-.67.19-.44.11.86.76a33.59,33.59,0,0,0,3.61-1.48v-.59Z"/><path class="cls-4" d="M130.13,155.26l-.82,1.13A131.82,131.82,0,0,0,146.42,153l.51-.17-.86-.76A117.37,117.37,0,0,1,130.13,155.26Z"/><path class="cls-4" d="M63,147.81q-1.83-.66-3.57-1.32l-.69.72a90,90,0,0,1-8.82-4.55,58.29,58.29,0,0,0,13.7,6.58V148Z"/><path class="cls-4" d="M63.62,148v1.22l2.62-.34C65.35,148.61,64.48,148.32,63.62,148Z"/><path class="cls-4" d="M59.43,146.49l-1.31-.5a108.53,108.53,0,0,1-10.41-4.74l2.21,1.41a90,90,0,0,0,8.82,4.55Z"/><path class="cls-1" d="M41,136.51h0Z"/><path class="cls-1" d="M41,136.52v.72a62.85,62.85,0,0,0,6.07,3.67,71.5,71.5,0,0,1-5.86-4.23Z"/><path class="cls-1" d="M41,136.51,40.4,136v.81l.61.43v-.72Z"/><path class="cls-1" d="M41.22,136.68a71.5,71.5,0,0,0,5.86,4.23l.63.34C45.58,139.85,43.41,138.32,41.22,136.68Z"/><path class="cls-1" d="M41,136.52l.21.16-.18-.15Z"/><path class="cls-1" d="M41,136.53l.18.15c2.19,1.64,4.36,3.17,6.49,4.57A108.53,108.53,0,0,0,58.12,146l1.31.5q1.74.66,3.57,1.32V133.08a35.25,35.25,0,0,1-4.11-1.48c-.7-.3-1.41-.62-2.14-1s-1.44-.71-2.17-1.09c-1.7-.89-3.46-1.91-5.28-3q-3-1.76-5.66-3.67c-.9-.64-1.78-1.3-2.63-2l-.32-.27-.29-.2V136l.61.51Z"/><path class="cls-2" d="M128.69,140.24a143.09,143.09,0,0,1-16.8,1.15l-1.69,0-2.35,0c-10.63-.22-27.8-2-44.23-8.08l-.62-.23v14.73l.62.21c.86.3,1.73.59,2.62.88a155.17,155.17,0,0,0,15,4,144.81,144.81,0,0,0,47.46,2.51V140.24Z"/><path class="cls-1" d="M196.71,99.32V98.15l-.23.23C196.56,98.69,196.64,99,196.71,99.32Z"/><path class="cls-1" d="M179.61,120.87v-.13l-.1.09Z"/><path class="cls-1" d="M195.27,99.47a37.26,37.26,0,0,1-2.77,6.44,42.31,42.31,0,0,1-3.71,5.66,51.55,51.55,0,0,1-8.34,8.45l-.08.06-.76.66v.13l-.1,0-.52.43v15.33l.62-.5.17-.14C194.6,124.12,196.56,112,196.56,112v-.45l.07-5.62.08-6.63c-.07-.32-.15-.63-.22-.94Z"/><path class="cls-2" d="M171.93,126.38a67.88,67.88,0,0,1-6.8,3.73,66.77,66.77,0,0,1-14.59,5l-.61.14V151l.61-.19.4-.13a104.39,104.39,0,0,0,17.14-7.06,76.61,76.61,0,0,0,10.91-7V121.26c-1.48,1.23-3,2.43-4.7,3.57C173.53,125.36,172.73,125.87,171.93,126.38Z"/><polygon class="cls-1" points="128.69 140.24 128.7 140.24 128.69 140.24 128.69 140.24"/><path class="cls-1" d="M146.35,136.72l-.55.14a83.39,83.39,0,0,1-16.49,3.3l-.62.08v15.22l.62-.08.82-.12a117.37,117.37,0,0,0,15.94-3.18l.44-.11.67-.19,2.75-.82V135.21a37,37,0,0,1-3.62,1.48Z"/><path class="cls-3" d="M41,120.83v0c.85.67,1.73,1.33,2.63,2l.09,0C42.83,122.17,41.92,121.51,41,120.83Z"/><path class="cls-3" d="M41,120.83l-.2-.15-.12-.08.32.27Z"/><path class="cls-3" d="M43.64,122.84q2.69,1.92,5.66,3.67c-1.82-1.13-3.68-2.37-5.57-3.7Z"/><path class="cls-3" d="M63.62,133l-.62.08.62.23Z"/><path class="cls-3" d="M110.2,141.42l1.69,0h-4Z"/><path class="cls-3" d="M179.61,120.74l.76-.66-.76.6Z"/><path class="cls-3" d="M179.45,120.81l.06,0,.1-.09v-.06Z"/><path class="cls-3" d="M150.54,135.07v-1l-.61,1.13Z"/><path class="cls-3" d="M179.11,121.08l0-.38.06-1.51-.2.16c-.38.3-.77.61-1.17.91a75.15,75.15,0,0,1-10.19,6.45l-.1.06c-.93.49-1.9,1-2.88,1.45-.63.31-1.27.61-1.93.91a108.66,108.66,0,0,1-12,4.59l-.2.36v1a66.77,66.77,0,0,0,14.59-5,67.88,67.88,0,0,0,6.8-3.73c.8-.51,1.6-1,2.36-1.55,1.66-1.14,3.22-2.34,4.7-3.57l.52-.43-.06,0Z"/><path class="cls-3" d="M146.31,136.69l-.51.17.55-.14Z"/><path class="cls-3" d="M107.85,141.39h4a143.09,143.09,0,0,0,16.8-1.15h0l.61-.86.66-.91,0-.06-.7.1-.62.08c-2.7.34-5.4.59-8.08.75a139.57,139.57,0,0,1-15.57,0,149.4,149.4,0,0,1-17.26-1.89q-3.63-.62-7.1-1.36c-4.79-1-9.32-2.26-13.55-3.59l-3.51.45v.31C80.05,139.39,97.22,141.17,107.85,141.39Z"/><path class="cls-4" d="M180.37,120.08l.08-.06h0Z"/><path class="cls-4" d="M192.5,105.91a37.26,37.26,0,0,0,2.77-6.44l-.1.09a39.08,39.08,0,0,1-3,6.35Z"/><path class="cls-4" d="M188.37,111.57h.42a42.31,42.31,0,0,0,3.71-5.66h-.32A51.54,51.54,0,0,1,188.37,111.57Z"/><path class="cls-4" d="M180.45,120h0a51.55,51.55,0,0,0,8.34-8.45h-.42A61.31,61.31,0,0,1,180.45,120Z"/><path class="cls-4" d="M180.53,118.09c-.31.26-.6.52-.92.77v1.82l.76-.6.08-.07Z"/><path class="cls-4" d="M179.45,120.81l.16-.13v-1.82l-.42.33-.06,1.51Z"/><path class="cls-4" d="M192.18,105.91a39.08,39.08,0,0,0,3-6.35l-.81.69a40.29,40.29,0,0,1-3,5.65Z"/><path class="cls-4" d="M192.18,105.91h-.81a49.78,49.78,0,0,1-4.22,5.67h1.22A51.54,51.54,0,0,0,192.18,105.91Z"/><path class="cls-4" d="M188.37,111.57h-1.22a57,57,0,0,1-6.62,6.52l-.08,1.92A61.31,61.31,0,0,0,188.37,111.57Z"/><path class="cls-4" d="M179.11,121.08l.34-.27-.32-.11Z"/><path class="cls-4" d="M129.31,140.16h0l-.61.09h0Z"/><path class="cls-4" d="M149.93,134c-1.08.33-2.18.66-3.3,1l-.67.19-1.06.28a121.56,121.56,0,0,1-14.3,2.89l-.63.14-.66.91-.61.86.61-.09h0a83.39,83.39,0,0,0,16.49-3.3l.51-.17a37,37,0,0,0,3.62-1.48l.61-1.13.2-.36-.2.07Z"/><path class="cls-4" d="M130,138.47l.63-.14-.59.08Z"/><path class="cls-4" d="M43.73,122.81l.28-.11c-1.08-.64-2.08-1.27-3-1.88h0C41.92,121.51,42.83,122.17,43.73,122.81Z"/><path class="cls-4" d="M41,120.82l-.2-.14.2.15Z"/><path class="cls-4" d="M49.3,126.51c1.82,1.12,3.58,2.14,5.28,3,.73.38,1.46.75,2.17,1.09s1.44.67,2.14,1A35.25,35.25,0,0,0,63,133.08l.62-.08,3.51-.45c-1.19-.37-2.37-.76-3.51-1.15l-.62-.21-2.19-.78-1.51-.57-.79-.3-.94-.36-1.89-.77A96.64,96.64,0,0,1,44,122.7l-.28.11C45.62,124.14,47.48,125.38,49.3,126.51Z"/><path class="cls-1" d="M59.3,129.84l1.51.57,2.19.78.62.21c1.14.39,2.32.78,3.51,1.15,4.23,1.33,8.76,2.56,13.55,3.59V121.65l-.75-.15a113.81,113.81,0,0,1-22.36-7.25v14.93l.94.36Z"/><path class="cls-2" d="M40.4,136.81V120.4l.29.2.12.08.2.14c.92.61,1.92,1.24,3,1.88a96.64,96.64,0,0,0,11.67,5.71l1.89.77V114.25c-17-7.63-29.1-18.89-33.1-31.85v20.09l-.06-.11c-.42-.89-.74-1.66-1-2.32l-.18,14.43A16.64,16.64,0,0,0,24,117l-.17,13.62a21,21,0,0,0,1.78,4.81c2,4.1,6.1,10.34,14.38,16.77.32.25.65.49,1,.74V137.24Z"/><path class="cls-1" d="M24.47,102.49V82.4l-.09-.24A31.85,31.85,0,0,1,23,73c0-.6,0-1.2.06-1.8H23l-.33,26.49a16.35,16.35,0,0,0,.73,2.37c.25.66.57,1.43,1,2.32Z"/><path class="cls-2" d="M167.53,126.77l.1-.06a75.15,75.15,0,0,0,10.19-6.45c.4-.3.79-.61,1.17-.91l.2-.16.42-.33c.32-.25.61-.51.92-.77a57,57,0,0,0,6.62-6.52,49.78,49.78,0,0,0,4.22-5.67,40.29,40.29,0,0,0,3-5.65,72.73,72.73,0,0,1-13.16,8.81A99.86,99.86,0,0,1,167.53,115Z"/><path class="cls-2" d="M105,139.39a139.57,139.57,0,0,0,15.57,0c2.68-.16,5.38-.41,8.08-.75l.62-.08.7-.1.59-.08a121.56,121.56,0,0,0,14.3-2.89l1.06-.28.67-.19V120.28c-1.65.27-3.29.48-4.93.68a138.87,138.87,0,0,1-32,3.65,140.73,140.73,0,0,1-29-3v14.49q3.46.75,7.1,1.36A149.4,149.4,0,0,0,105,139.39Z"/><path class="cls-1" d="M146.63,120.28V135c1.12-.32,2.22-.65,3.3-1l.61-.2.2-.07a108.66,108.66,0,0,0,12-4.59c.66-.3,1.3-.6,1.93-.91,1-.48,1.95-1,2.88-1.45V115c-2.29.81-4.69,1.58-7.23,2.3l-.67.19A118.94,118.94,0,0,1,146.63,120.28Z"/><path class="cls-3" d="M36.67,55.27c-1.66-.88-2.13-2.36-1-3.55l1.46-1.53c0-.3.09-.6.15-.9A33.67,33.67,0,0,1,39.21,43c-8.33,6.93-13.87,15.14-15.6,24H36.53Z"/><path class="cls-3" d="M141.7,121a139.81,139.81,0,0,1-33.76-.22h-1.76a4.71,4.71,0,0,1-2.14-.54c-3.32-.5-6.56-1.09-9.69-1.77s-6.28-1.46-9.23-2.29l-5.19,5.36.75.15a140.73,140.73,0,0,0,29,3A138.87,138.87,0,0,0,141.7,121Z"/><path class="cls-3" d="M52.53,101.56l-.75-.6-3,1.18c-2.2.86-5.18.49-6.62-.82l-6.08-5.53c-1.44-1.31-.82-3.08,1.38-3.94l4-1.57a38.53,38.53,0,0,1-3.31-5.5A26.11,26.11,0,0,1,37,82.16H24.38l.09.24c4,13,16.12,24.22,33.1,31.85l6-6.15A63.5,63.5,0,0,1,52.53,101.56Z"/><path class="cls-4" d="M24.38,82.16H37A16.88,16.88,0,0,1,36.36,80l.17-13H23.61a31.11,31.11,0,0,0-.53,4.2c0,.6-.06,1.2-.06,1.8A31.85,31.85,0,0,0,24.38,82.16Z"/><path class="cls-4" d="M85.12,116.14a146.11,146.11,0,0,1-13.88-4.67c-2.78-1.1-5.36-2.24-7.71-3.37l-6,6.15a113.81,113.81,0,0,0,22.36,7.25Z"/><path class="cls-5" d="M107.94,120.74q-2-.26-3.9-.54a4.71,4.71,0,0,0,2.14.54Z"/><path class="cls-5" d="M36.75,53.5c.07-1.11.2-2.21.38-3.31l-1.46,1.53c-1.13,1.19-.66,2.67,1,3.55l0-1.77Z"/><path class="cls-5" d="M46.07,95.83a1.41,1.41,0,0,1-.2-.24,48.78,48.78,0,0,1-4.42-5.31l-4,1.57c-2.2.86-2.82,2.63-1.38,3.94l6.08,5.53c1.44,1.31,4.42,1.68,6.62.82l3-1.18a60.64,60.64,0,0,1-5.57-5A.71.71,0,0,1,46.07,95.83ZM40.73,95A2.87,2.87,0,0,1,38,94.68c-.59-.54-.34-1.27.57-1.63a2.89,2.89,0,0,1,2.74.34C41.9,93.93,41.65,94.66,40.73,95Zm7.2,4.39c.6.55.35,1.28-.57,1.63a2.85,2.85,0,0,1-2.73-.34c-.6-.54-.35-1.27.56-1.63A2.92,2.92,0,0,1,47.93,99.41Z"/><path class="cls-6" d="M38.56,93.05c-.91.36-1.16,1.09-.57,1.63a2.87,2.87,0,0,0,2.74.34c.92-.36,1.17-1.09.57-1.63A2.89,2.89,0,0,0,38.56,93.05Z"/><path class="cls-6" d="M46.21,95.93l-.34-.34a1.41,1.41,0,0,0,.2.24A.71.71,0,0,0,46.21,95.93Z"/><path class="cls-6" d="M44.63,100.7a2.85,2.85,0,0,0,2.73.34c.92-.35,1.17-1.08.57-1.63a2.92,2.92,0,0,0-2.74-.34C44.28,99.43,44,100.16,44.63,100.7Z"/><path class="cls-1" d="M71.24,111.47a146.11,146.11,0,0,0,13.88,4.67c2.95.83,6,1.6,9.23,2.29V103.94l-.75-.15a114.24,114.24,0,0,1-22.36-7.25Z"/><path class="cls-2" d="M41.45,90.28a48.78,48.78,0,0,0,4.42,5.31l.34.34a60.64,60.64,0,0,0,5.57,5l.75.6a63.5,63.5,0,0,0,11,6.54c2.35,1.13,4.93,2.27,7.71,3.37V96.54h0c-17-7.62-29.1-18.89-33.1-31.84V84.78A38.53,38.53,0,0,0,41.45,90.28Z"/><path class="cls-1" d="M38.14,64.7c0-.09-.06-.17-.08-.25A31.44,31.44,0,0,1,36.7,55.3c0-.61,0-1.21,0-1.8h0l0,1.77L36.53,67l-.17,13A16.88,16.88,0,0,0,37,82.16a26.11,26.11,0,0,0,1.12,2.62Z"/><path class="cls-2" d="M181.2,93.68v15.38a72.73,72.73,0,0,0,13.16-8.81l.81-.69.1-.09,1.22-1.09.23-.23c11.36-10.68,13-20.65,13-20.65l.26-22.2a30.78,30.78,0,0,1-.51,5.6C207.08,73.88,196.65,85.41,181.2,93.68Z"/><path class="cls-2" d="M104,120.2q1.93.28,3.9.54a139.81,139.81,0,0,0,33.76.22c1.64-.2,3.28-.41,4.93-.68a118.94,118.94,0,0,0,13-2.82l.67-.19V102l-.83.24a137.63,137.63,0,0,1-36.15,4.7,140.1,140.1,0,0,1-29-3v14.49C97.48,119.11,100.72,119.7,104,120.2Z"/><path class="cls-1" d="M160.3,102v15.3c2.54-.72,4.94-1.49,7.23-2.3a99.86,99.86,0,0,0,13.67-5.91V93.68l-.43.24A104.3,104.3,0,0,1,160.3,102Z"/><path class="cls-3" d="M53.54,49.29c2.69,0,4.89,1.31,4.89,2.92v9.32c0,1.61-2.2,2.92-4.89,2.92H38.06c0,.08,0,.16.08.25,4,13,16.12,24.22,33.1,31.84l8.59-8.86c1.35-1.39,4.36-1.87,6.69-1.07l13.55,4.66c2.33.81,3.14,2.6,1.79,4l-8.26,8.53.75.15a140.1,140.1,0,0,0,29,3,137.63,137.63,0,0,0,36.15-4.7L150.25,94c-1.51-1.33-.91-3.15,1.33-4l13-5.2c2.24-.89,5.3-.54,6.8.8l9.41,8.34.43-.24c15.45-8.27,25.88-19.8,28.23-32.78H193.3c-2.69,0-4.9-1.31-4.9-2.92V48.66c0-1.61,2.21-2.92,4.9-2.92h15.16c-4.1-13-16.41-24.34-33.61-31.94l-8.55,8.82c-1.35,1.39-4.36,1.87-6.69,1.07L146.06,19c-2.33-.8-3.14-2.6-1.79-4l8.12-8.38a141,141,0,0,0-29.07-3A137.83,137.83,0,0,0,88,8.15l9,7.94c1.51,1.33.91,3.15-1.33,4.05l-13,5.2c-2.24.9-5.3.54-6.8-.79l-9.3-8.24c-13.3,6.87-23,16.13-27.35,26.65a33.67,33.67,0,0,0-1.93,6.33ZM71.7,80.81l-9.28,3.62c-2.19.86-5.17.49-6.61-.82l-6.08-5.52c-1.44-1.31-.82-3.09,1.37-3.94l9.28-3.63c2.2-.85,5.17-.49,6.61.82l6.08,5.53C74.51,78.18,73.9,80,71.7,80.81Zm64.06,17.48A4.75,4.75,0,0,1,131,103H119.86a4.75,4.75,0,0,1-4.74-4.74V95.47a4.75,4.75,0,0,1,4.74-4.74H131a4.75,4.75,0,0,1,4.74,4.74Zm60.44-26.7c2.28.77,3.09,2.52,1.78,3.88l-5.48,5.74c-1.3,1.36-4.24,1.84-6.52,1.07L176.34,79c-2.28-.78-3.08-2.53-1.78-3.89L180,69.38c1.3-1.36,4.24-1.84,6.52-1.06Zm-22.5-42L183,26c2.2-.86,5.17-.49,6.62.82l6.07,5.53c1.45,1.31.83,3.08-1.37,3.94L185,39.9c-2.19.86-5.17.49-6.61-.82l-6.08-5.52C170.89,32.25,171.51,30.47,173.7,29.61ZM110.83,10.88a4.75,4.75,0,0,1,4.74-4.74h11.16a4.75,4.75,0,0,1,4.74,4.74V13.7a4.76,4.76,0,0,1-4.74,4.74H115.57a4.76,4.76,0,0,1-4.74-4.74ZM75.35,35.34q.15,0,.12-.09l.54-.17a50.93,50.93,0,0,1,9.81-6.39V28.6c.08-.05.1-.1.08-.17l1-.54A87.05,87.05,0,0,1,98.09,23.6a.15.15,0,0,0,.18-.05l.61,0,.12.08A88.11,88.11,0,0,1,113.26,21l.11-.14a.31.31,0,0,0,.21-.12l1.3-.17a120.71,120.71,0,0,1,13.32-.31.18.18,0,0,0,.2,0l.51.19a.74.74,0,0,1,0,.14,92.1,92.1,0,0,1,14.69,2l.3-.12a.41.41,0,0,0,.29,0l1.26.27a91.9,91.9,0,0,1,11.61,3.89c0,.06.06.08.15.08l.27.32v0a57.17,57.17,0,0,1,10.89,6.09.66.66,0,0,0,.15,0l.9.59a46.61,46.61,0,0,1,7,6.75s0,.08.08.1l0,.34A25.06,25.06,0,0,1,181,50.05v0l0,.15a21.22,21.22,0,0,1,.58,4.84s0,.06,0,.09a18.26,18.26,0,0,1-.13,2.86c-.08,0-.09.07,0,.12l-.08.08c-2.67,17.65-27.56,31.49-57.89,31.49-32.1,0-58.13-15.51-58.13-34.64,0-.54,0-1.07.07-1.6s0-.86.08-1.3c.07,0,.08-.07,0-.11l.07-.06a23.15,23.15,0,0,1,3.27-8.8l-.06-.06c.14-.25.27-.5.4-.76A41.73,41.73,0,0,1,75.35,35.34ZM49.35,34l5.48-5.74c1.31-1.36,4.24-1.84,6.52-1.07L71,30.47c2.28.78,3.09,2.53,1.79,3.89L67.29,40.1c-1.3,1.36-4.24,1.84-6.52,1.06l-9.64-3.27C48.85,37.12,48.05,35.37,49.35,34Z"/><path class="cls-4" d="M208.46,45.74H193.3c-2.69,0-4.9,1.31-4.9,2.92V58c0,1.61,2.21,2.92,4.9,2.92h16.13a30.78,30.78,0,0,0,.51-5.6h0A31.85,31.85,0,0,0,208.46,45.74Z"/><path class="cls-4" d="M36.7,55.3a31.44,31.44,0,0,0,1.36,9.15H53.54c2.69,0,4.89-1.31,4.89-2.92V52.21c0-1.61-2.2-2.92-4.89-2.92H37.28c-.06.3-.1.6-.15.9-.18,1.1-.31,2.2-.38,3.31C36.72,54.09,36.7,54.69,36.7,55.3Z"/><path class="cls-4" d="M82.66,25.34l13-5.2c2.24-.9,2.84-2.72,1.33-4.05L88,8.15a106.57,106.57,0,0,0-21.46,8.16l9.3,8.24C77.36,25.88,80.42,26.24,82.66,25.34Z"/><path class="cls-4" d="M180.77,93.92l-9.41-8.34c-1.5-1.34-4.56-1.69-6.8-.8l-13,5.2c-2.24.9-2.84,2.72-1.33,4l9.22,8.18.83-.24A104.3,104.3,0,0,0,180.77,93.92Z"/><path class="cls-4" d="M93.6,103.79l8.26-8.53c1.35-1.39.54-3.18-1.79-4L86.52,86.61c-2.33-.8-5.34-.32-6.69,1.07l-8.59,8.86h0A114.24,114.24,0,0,0,93.6,103.79Z"/><path class="cls-4" d="M146.06,19l13.55,4.66c2.33.8,5.34.32,6.69-1.07l8.55-8.82a114.74,114.74,0,0,0-22.46-7.14L144.27,15C142.92,16.43,143.73,18.23,146.06,19Z"/><path class="cls-7" d="M181.61,55.07a21.22,21.22,0,0,0-.58-4.84,31.69,31.69,0,0,1,.57,4.93S181.61,55.1,181.61,55.07Z"/><path class="cls-7" d="M78.49,35.86c.47.21.72.49.53.85h0l-.18.13a31.15,31.15,0,0,0-5.67,6.54c-.48.94-1.48,1-2.75.56-.39-.13-.82-.23-1.23-.34l-.33-.29a.14.14,0,0,0,0-.11A23.15,23.15,0,0,0,65.58,52l.26-.25a11.9,11.9,0,0,1,2.8-.07c.58,0,1,.21,1.18.58h0l0,.17a19.24,19.24,0,0,0,.64,7.34c.39,1-.47,1.28-1.9,1.31-.45,0-.9.06-1.35.09L66.63,61a.25.25,0,0,0-.2-.13l-.3-.77a28.26,28.26,0,0,1-.72-6.64c0,.53-.07,1.06-.07,1.6,0,19.13,26,34.64,58.13,34.64,30.33,0,55.22-13.84,57.89-31.49l-.25.22a11.93,11.93,0,0,1-2.8.05c-.58-.05-1-.21-1.17-.59h0l.05-.17a19.22,19.22,0,0,0-.47-7.35c-.37-1,.5-1.27,1.93-1.29.45,0,.9-.05,1.35-.07l.53.15a.27.27,0,0,0,.2.13l.27.74a25.06,25.06,0,0,0-4.47-9.15v0a9.24,9.24,0,0,1-2.39.87,1.85,1.85,0,0,1-1.5-.17h0l-.1-.16A35.16,35.16,0,0,0,166,35.25c-1.13-.73-.63-1.26.59-1.7.39-.14.74-.31,1.11-.46l.59,0a.59.59,0,0,0,.13,0A57.17,57.17,0,0,0,157.51,27a4.68,4.68,0,0,1-1.38,1.44,1.77,1.77,0,0,1-1.45.28h0l-.22-.11A70.24,70.24,0,0,0,143.69,25c-1.57-.32-1.56-.92-.85-1.65.23-.24.4-.49.6-.73l.2-.07a92.1,92.1,0,0,0-14.69-2,2.66,2.66,0,0,1,.06,1.53c-.08.35-.36.62-1,.7h0l-.28,0a88.94,88.94,0,0,0-12.33.31c-1.62.22-2.14-.29-2.18-1.15,0-.27-.09-.53-.13-.8l.15-.18A88.11,88.11,0,0,0,99,23.65,5,5,0,0,1,100.38,25c.22.32.21.64-.25.9h0l-.27.06a64.81,64.81,0,0,0-10.36,4,2.17,2.17,0,0,1-2.86-.32c-.24-.23-.52-.44-.79-.66l0-.26A50.93,50.93,0,0,0,76,35.08h0A9.61,9.61,0,0,1,78.49,35.86Zm2.42,40.49c-.39.14-.74.32-1.11.47l-.59,0a.44.44,0,0,0-.28,0l-.9-.59a47.28,47.28,0,0,1-7.12-6.71s0-.09-.07-.11l0-.36a9.1,9.1,0,0,1,2.38-.89,1.91,1.91,0,0,1,1.51.16h0l.1.16a35.71,35.71,0,0,0,6.63,6.21C82.61,75.38,82.12,75.91,80.91,76.35Zm23.78,9.8c-.21.23-.38.48-.57.73l-.5.19a.56.56,0,0,0-.29,0l-1.26-.25a93.42,93.42,0,0,1-11.72-3.78c0-.06-.06-.08-.16-.07l-.27-.33a4.5,4.5,0,0,1,1.35-1.46,1.74,1.74,0,0,1,1.44-.3h0l.21.11A71,71,0,0,0,103.8,84.5C105.38,84.8,105.39,85.4,104.69,86.15Zm28.48,2.5a.23.23,0,0,0-.21.12l-1.31.16a118.3,118.3,0,0,1-13.32.27.18.18,0,0,0-.2,0l-.51-.2a2.66,2.66,0,0,1-.08-1.67c.09-.34.36-.61,1-.69h0l.28,0a89.08,89.08,0,0,0,12.34-.28c1.62-.21,2.14.3,2.17,1.15a7.54,7.54,0,0,0,.12.81Zm27-7.28-1,.53a90.18,90.18,0,0,1-11.37,4.15.15.15,0,0,0-.18,0l-.61,0a4.8,4.8,0,0,1-1.45-1.42c-.21-.33-.19-.64.28-.9h0l.27-.06a66.07,66.07,0,0,0,10.5-3.87,2.15,2.15,0,0,1,2.84.37c.23.23.51.44.77.66l0,.35C160.2,81.25,160.17,81.3,160.19,81.37Zm17-14.82.33.3c0,.06,0,.12.07.17l-.42.75a42.57,42.57,0,0,1-6.37,7c-.09,0-.14,0-.12.09l-.55.16a9.6,9.6,0,0,1-2.46-.8c-.45-.22-.7-.5-.5-.86h0l.18-.13a31.43,31.43,0,0,0,5.86-6.47c.51-.95,1.52-.95,2.77-.53C176.35,66.34,176.77,66.44,177.18,66.55Zm-53.9-43.46c29.33,0,53.1,14.16,53.1,31.64s-23.77,31.64-53.1,31.64S70.18,72.2,70.18,54.73,94,23.09,123.28,23.09Z"/><ellipse class="cls-5" cx="123.28" cy="54.73" rx="53.1" ry="31.64"/><path class="cls-8" d="M167.68,33.09c-.37.15-.72.32-1.11.46-1.22.44-1.72,1-.59,1.7a35.16,35.16,0,0,1,6.54,6.23l.1.16h0a1.85,1.85,0,0,0,1.5.17,9.24,9.24,0,0,0,2.39-.87v0l0-.34c-.09,0-.12-.05-.08-.1a46.61,46.61,0,0,0-7-6.75l-.9-.59a.66.66,0,0,1-.15,0,.59.59,0,0,1-.13,0Z"/><path class="cls-8" d="M180.52,49.18,180,49c-.45,0-.9.06-1.35.07-1.43,0-2.3.33-1.93,1.29a19.22,19.22,0,0,1,.47,7.35l-.05.17h0c.14.38.59.54,1.17.59a11.93,11.93,0,0,0,2.8-.05l.25-.22.08-.08c-.06,0-.05-.08,0-.12a18.26,18.26,0,0,0,.13-2.86,31.69,31.69,0,0,0-.57-4.93l0-.15v0l-.27-.74A.27.27,0,0,1,180.52,49.18Z"/><path class="cls-8" d="M173.19,66.74a31.43,31.43,0,0,1-5.86,6.47l-.18.13h0c-.2.36.05.64.5.86a9.6,9.6,0,0,0,2.46.8l.55-.16s0-.08.12-.09a42.57,42.57,0,0,0,6.37-7l.42-.75c-.08,0-.1-.11-.07-.17l-.33-.3c-.41-.11-.83-.21-1.22-.34C174.71,65.79,173.7,65.79,173.19,66.74Z"/><path class="cls-8" d="M159.47,80.19a2.15,2.15,0,0,0-2.84-.37,66.07,66.07,0,0,1-10.5,3.87l-.27.06h0c-.47.26-.49.57-.28.9A4.8,4.8,0,0,0,147,86.07l.61,0a.15.15,0,0,1,.18,0A90.18,90.18,0,0,0,159.2,81.9l1-.53c0-.07,0-.12.09-.17l0-.35C160,80.63,159.7,80.42,159.47,80.19Z"/><path class="cls-8" d="M131.14,86.37a89.08,89.08,0,0,1-12.34.28l-.28,0h0c-.63.08-.9.35-1,.69a2.66,2.66,0,0,0,.08,1.67l.51.2a.18.18,0,0,1,.2,0,118.3,118.3,0,0,0,13.32-.27l1.31-.16a.23.23,0,0,1,.21-.12l.26-.32a7.54,7.54,0,0,1-.12-.81C133.28,86.67,132.76,86.16,131.14,86.37Z"/><path class="cls-8" d="M103.8,84.5A71,71,0,0,1,92.92,81l-.21-.11h0a1.74,1.74,0,0,0-1.44.3,4.5,4.5,0,0,0-1.35,1.46l.27.33c.1,0,.15,0,.16.07a93.42,93.42,0,0,0,11.72,3.78l1.26.25a.56.56,0,0,1,.29,0l.5-.19c.19-.25.36-.5.57-.73C105.39,85.4,105.38,84.8,103.8,84.5Z"/><path class="cls-8" d="M81.48,74.66a35.71,35.71,0,0,1-6.63-6.21l-.1-.16h0a1.91,1.91,0,0,0-1.51-.16,9.1,9.1,0,0,0-2.38.89l0,.36c.08,0,.11.06.07.11A47.28,47.28,0,0,0,78,76.21l.9.59a.44.44,0,0,1,.28,0l.59,0c.37-.15.72-.33,1.11-.47C82.12,75.91,82.61,75.38,81.48,74.66Z"/><path class="cls-8" d="M66.43,60.88a.25.25,0,0,1,.2.13l.54.15c.45,0,.9-.08,1.35-.09,1.43,0,2.29-.34,1.9-1.31a19.24,19.24,0,0,1-.64-7.34l0-.17h0c-.15-.37-.6-.54-1.18-.58a11.9,11.9,0,0,0-2.8.07l-.26.25-.07.06c.06,0,0,.08,0,.11,0,.44-.07.87-.08,1.3a28.26,28.26,0,0,0,.72,6.64Z"/><path class="cls-8" d="M68.79,43.14l.06.06a.14.14,0,0,1,0,.11l.33.29c.41.11.84.21,1.23.34,1.27.4,2.27.38,2.75-.56a31.15,31.15,0,0,1,5.67-6.54l.18-.13h0c.19-.36-.06-.64-.53-.85A9.61,9.61,0,0,0,76,35.08h0l-.54.17s0,.08-.12.09a41.73,41.73,0,0,0-6.16,7C69.06,42.64,68.93,42.89,68.79,43.14Z"/><path class="cls-8" d="M86.65,29.61a2.17,2.17,0,0,0,2.86.32,64.81,64.81,0,0,1,10.36-4l.27-.06h0c.46-.26.47-.58.25-.9A5,5,0,0,0,99,23.65l-.12-.08-.61,0a.15.15,0,0,1-.18.05,87.05,87.05,0,0,0-11.22,4.29l-1,.54c0,.07,0,.12-.08.17v.09l0,.26C86.13,29.17,86.41,29.38,86.65,29.61Z"/><path class="cls-8" d="M113.24,22c0,.86.56,1.37,2.18,1.15a88.94,88.94,0,0,1,12.33-.31l.28,0h0c.63-.08.91-.35,1-.7a2.66,2.66,0,0,0-.06-1.53.74.74,0,0,0,0-.14l-.51-.19a.18.18,0,0,1-.2,0,120.71,120.71,0,0,0-13.32.31l-1.3.17a.31.31,0,0,1-.21.12l-.11.14-.15.18C113.15,21.43,113.22,21.69,113.24,22Z"/><path class="cls-8" d="M142.84,23.38c-.71.73-.72,1.33.85,1.65a70.24,70.24,0,0,1,10.78,3.59l.22.11h0a1.77,1.77,0,0,0,1.45-.28A4.68,4.68,0,0,0,157.51,27v0l-.27-.32c-.09,0-.14,0-.15-.08a91.9,91.9,0,0,0-11.61-3.89l-1.26-.27a.41.41,0,0,1-.29,0l-.3.12-.2.07C143.24,22.89,143.07,23.14,142.84,23.38Z"/><path class="cls-5" d="M115.57,18.44h11.16a4.76,4.76,0,0,0,4.74-4.74V10.88a4.75,4.75,0,0,0-4.74-4.74H115.57a4.75,4.75,0,0,0-4.74,4.74V13.7A4.76,4.76,0,0,0,115.57,18.44ZM127.2,8c1.09,0,2,.52,2,1.17s-.89,1.18-2,1.18-2-.53-2-1.18S126.11,8,127.2,8Zm0,3.23c1.09,0,2,.53,2,1.18s-.89,1.18-2,1.18-2-.53-2-1.18S126.11,11.26,127.2,11.26Zm0,3.24c1.09,0,2,.53,2,1.18s-.89,1.18-2,1.18-2-.53-2-1.18S126.11,14.5,127.2,14.5ZM115.11,8c1.09,0,2,.52,2,1.18s-.89,1.17-2,1.17-2-.52-2-1.17S114,8,115.11,8Zm0,3.24c1.09,0,2,.52,2,1.17s-.89,1.18-2,1.18-2-.53-2-1.18S114,11.27,115.11,11.27Zm0,3.23c1.09,0,2,.53,2,1.18s-.89,1.18-2,1.18-2-.53-2-1.18S114,14.5,115.11,14.5Z"/><ellipse class="cls-6" cx="115.11" cy="9.21" rx="1.98" ry="1.18"/><path class="cls-6" d="M115.11,13.62c1.09,0,2-.53,2-1.18s-.89-1.17-2-1.17-2,.52-2,1.17S114,13.62,115.11,13.62Z"/><path class="cls-6" d="M115.11,16.86c1.09,0,2-.53,2-1.18s-.89-1.18-2-1.18-2,.53-2,1.18S114,16.86,115.11,16.86Z"/><path class="cls-6" d="M127.2,10.38c1.09,0,2-.53,2-1.18S128.29,8,127.2,8s-2,.52-2,1.17S126.11,10.38,127.2,10.38Z"/><path class="cls-6" d="M127.2,13.62c1.09,0,2-.53,2-1.18s-.89-1.18-2-1.18-2,.53-2,1.18S126.11,13.62,127.2,13.62Z"/><path class="cls-6" d="M127.2,16.86c1.09,0,2-.53,2-1.18s-.89-1.18-2-1.18-2,.53-2,1.18S126.11,16.86,127.2,16.86Z"/><path class="cls-5" d="M131,90.73H119.86a4.75,4.75,0,0,0-4.74,4.74v2.82a4.75,4.75,0,0,0,4.74,4.74H131a4.75,4.75,0,0,0,4.74-4.74V95.47A4.75,4.75,0,0,0,131,90.73Zm-5.58,7.33c-1.09,0-2-.53-2-1.18s.89-1.18,2-1.18,2,.53,2,1.18S126.53,98.06,125.44,98.06Z"/><path class="cls-6" d="M125.44,95.7c-1.09,0-2,.53-2,1.18s.89,1.18,2,1.18,2-.53,2-1.18S126.53,95.7,125.44,95.7Z"/><path class="cls-5" d="M180,69.38l-5.48,5.74c-1.3,1.36-.5,3.11,1.78,3.89L186,82.28c2.28.77,5.22.29,6.52-1.07L198,75.47c1.31-1.36.5-3.11-1.78-3.88l-9.64-3.27C184.28,67.54,181.34,68,180,69.38Zm.46,8.1a2.76,2.76,0,0,1-2.69.44c-.95-.32-1.28-1-.74-1.6a2.76,2.76,0,0,1,2.69-.44C180.71,76.2,181,76.92,180.5,77.48Zm12-4.22a2.83,2.83,0,0,1,2.7-.44c.95.32,1.28,1,.74,1.61a2.83,2.83,0,0,1-2.7.44C192.28,74.55,192,73.83,192.49,73.26ZM188,75.88a2.81,2.81,0,0,1-2.7.44c-.95-.32-1.28-1-.74-1.61a2.83,2.83,0,0,1,2.7-.44C188.2,74.6,188.53,75.31,188,75.88Z"/><path class="cls-6" d="M179.76,75.88a2.76,2.76,0,0,0-2.69.44c-.54.56-.21,1.28.74,1.6a2.76,2.76,0,0,0,2.69-.44C181,76.92,180.71,76.2,179.76,75.88Z"/><path class="cls-6" d="M184.55,74.71c-.54.57-.21,1.29.74,1.61a2.81,2.81,0,0,0,2.7-.44c.54-.57.21-1.28-.74-1.61A2.83,2.83,0,0,0,184.55,74.71Z"/><path class="cls-6" d="M193.23,74.87a2.83,2.83,0,0,0,2.7-.44c.54-.57.21-1.29-.74-1.61a2.83,2.83,0,0,0-2.7.44C192,73.83,192.28,74.55,193.23,74.87Z"/><path class="cls-5" d="M51.13,37.89l9.64,3.27c2.28.78,5.22.3,6.52-1.06l5.49-5.74c1.3-1.36.49-3.11-1.79-3.89L61.35,27.2c-2.28-.77-5.21-.29-6.52,1.07L49.35,34C48.05,35.37,48.85,37.12,51.13,37.89Zm16.15-5.74a2.81,2.81,0,0,1,2.7-.44c1,.32,1.28,1,.74,1.61a2.83,2.83,0,0,1-2.7.44C67.08,33.43,66.74,32.71,67.28,32.15ZM64,38c1,.32,1.28,1,.74,1.61A2.83,2.83,0,0,1,62,40c-.95-.33-1.28-1-.74-1.61A2.81,2.81,0,0,1,64,38Zm-6.16-9a2.82,2.82,0,0,1,2.69-.44c.95.32,1.28,1,.74,1.61a2.79,2.79,0,0,1-2.69.44C57.63,30.23,57.3,29.51,57.84,28.94Zm-6,6.26a2.81,2.81,0,0,1,2.69-.44c1,.33,1.28,1,.74,1.61a2.79,2.79,0,0,1-2.69.44C51.65,36.49,51.32,35.77,51.86,35.2Z"/><path class="cls-6" d="M52.6,36.81a2.79,2.79,0,0,0,2.69-.44c.54-.57.21-1.28-.74-1.61a2.81,2.81,0,0,0-2.69.44C51.32,35.77,51.65,36.49,52.6,36.81Z"/><path class="cls-6" d="M62,40a2.83,2.83,0,0,0,2.7-.44C65.28,39,65,38.29,64,38a2.81,2.81,0,0,0-2.7.44C60.76,39,61.09,39.69,62,40Z"/><path class="cls-6" d="M58.58,30.55a2.79,2.79,0,0,0,2.69-.44c.54-.57.21-1.29-.74-1.61a2.82,2.82,0,0,0-2.69.44C57.3,29.51,57.63,30.23,58.58,30.55Z"/><path class="cls-6" d="M68,33.76a2.83,2.83,0,0,0,2.7-.44c.54-.57.21-1.29-.74-1.61a2.81,2.81,0,0,0-2.7.44C66.74,32.71,67.08,33.43,68,33.76Z"/><path class="cls-5" d="M178.41,39.08c1.44,1.31,4.42,1.68,6.61.82l9.28-3.62c2.2-.86,2.82-2.63,1.37-3.94l-6.07-5.53c-1.45-1.31-4.42-1.68-6.62-.82l-9.28,3.62c-2.19.86-2.81,2.64-1.37,4Zm12.15-5.8a2.92,2.92,0,0,1,2.74.34c.6.55.34,1.28-.57,1.63a2.9,2.9,0,0,1-2.74-.33C189.39,34.37,189.65,33.64,190.56,33.28Zm-15.72-2.47a2.92,2.92,0,0,1,2.74.34c.59.55.34,1.28-.57,1.63a2.87,2.87,0,0,1-2.74-.34C173.67,31.9,173.93,31.17,174.84,30.81Z"/><path class="cls-6" d="M177,32.78c.91-.35,1.16-1.08.57-1.63a2.92,2.92,0,0,0-2.74-.34c-.91.36-1.17,1.09-.57,1.63A2.87,2.87,0,0,0,177,32.78Z"/><path class="cls-6" d="M192.73,35.25c.91-.35,1.17-1.08.57-1.63a2.92,2.92,0,0,0-2.74-.34c-.91.36-1.17,1.09-.57,1.64A2.9,2.9,0,0,0,192.73,35.25Z"/><path class="cls-5" d="M67,71.34c-1.44-1.31-4.41-1.67-6.61-.82L51.1,74.15c-2.19.85-2.81,2.63-1.37,3.94l6.08,5.52c1.44,1.31,4.42,1.68,6.61.82l9.28-3.62c2.2-.86,2.81-2.63,1.37-3.94Zm-12.58,6A2.87,2.87,0,0,1,51.67,77c-.6-.54-.35-1.27.57-1.63a2.92,2.92,0,0,1,2.74.34C55.57,76.23,55.32,77,54.41,77.31Zm6.63,6A2.92,2.92,0,0,1,58.3,83c-.6-.55-.34-1.28.57-1.63a2.87,2.87,0,0,1,2.74.34C62.21,82.25,62,83,61,83.34Zm1.44-4.88a2.85,2.85,0,0,1-2.73-.34c-.6-.54-.35-1.27.57-1.63a2.9,2.9,0,0,1,2.73.34C63.65,77.38,63.4,78.11,62.48,78.46Zm1-4.7a2.87,2.87,0,0,1-2.74-.34c-.6-.54-.34-1.27.57-1.63a2.92,2.92,0,0,1,2.74.34C64.67,72.68,64.41,73.41,63.5,73.76Zm6.63,6a2.92,2.92,0,0,1-2.74-.34c-.6-.55-.34-1.28.57-1.63a2.87,2.87,0,0,1,2.74.34C71.3,78.7,71,79.43,70.13,79.79Z"/><path class="cls-6" d="M61.33,71.79c-.91.36-1.17,1.09-.57,1.63a2.87,2.87,0,0,0,2.74.34c.91-.35,1.17-1.08.57-1.63A2.92,2.92,0,0,0,61.33,71.79Z"/><path class="cls-6" d="M52.24,75.34c-.92.36-1.17,1.09-.57,1.63a2.87,2.87,0,0,0,2.74.34c.91-.35,1.16-1.08.57-1.63A2.92,2.92,0,0,0,52.24,75.34Z"/><path class="cls-6" d="M68,77.82c-.91.35-1.17,1.08-.57,1.63a2.92,2.92,0,0,0,2.74.34c.91-.36,1.17-1.09.57-1.63A2.87,2.87,0,0,0,68,77.82Z"/><path class="cls-6" d="M60.32,76.49c-.92.36-1.17,1.09-.57,1.63a2.85,2.85,0,0,0,2.73.34c.92-.35,1.17-1.08.57-1.63A2.9,2.9,0,0,0,60.32,76.49Z"/><path class="cls-6" d="M58.87,81.37c-.91.35-1.17,1.08-.57,1.63a2.92,2.92,0,0,0,2.74.34c.91-.36,1.17-1.09.57-1.63A2.87,2.87,0,0,0,58.87,81.37Z"/></svg>