<svg id="Calque_1" data-name="Calque 1" xmlns="http://www.w3.org/2000/svg" viewBox="0 0 226.29 176.23"><defs><style>.cls-1{fill:#fff;stroke:#221f20;stroke-miterlimit:10;}.cls-2{fill:#0099da;}.cls-3{fill:#ece7da;}.cls-4{fill:#00576b;}.cls-5{fill:#006ba3;}.cls-6{fill:#ceb7a1;}.cls-7{fill:#e8d9c9;}</style></defs><title>poker</title><rect class="cls-1" x="-37" y="-27.6" width="286" height="210.46"/><path class="cls-2" d="M178.23,92.23V76.88A4.82,4.82,0,0,1,183,72.07h14.88a85.06,85.06,0,0,0-33-52.61L156.54,34A4.81,4.81,0,0,1,150,35.75l-13.3-7.68a4.83,4.83,0,0,1-1.76-6.57l8-13.8a85.29,85.29,0,0,0-63.18,2.45L88.5,23.23a4.81,4.81,0,0,1-1.31,6.67L74.45,38.47a4.83,4.83,0,0,1-6.67-1.31L58.65,23.59A84.85,84.85,0,0,0,29.92,77.92H45.87a4.82,4.82,0,0,1,4.81,4.8V98.08a4.82,4.82,0,0,1-4.81,4.81H30.68a85,85,0,0,0,32.57,52.86l8.43-14.6a4.81,4.81,0,0,1,6.56-1.76l13.3,7.68a4.83,4.83,0,0,1,1.76,6.57l-8.11,14.05a85.33,85.33,0,0,0,64.65-2.61l-9.05-13.46a4.82,4.82,0,0,1,1.3-6.67l12.75-8.57a4.81,4.81,0,0,1,6.67,1.31l9.24,13.74A84.85,84.85,0,0,0,198.87,97H183A4.82,4.82,0,0,1,178.23,92.23Z"/><path class="cls-3" d="M197.92,72.07H183a4.82,4.82,0,0,0-4.81,4.81V92.23A4.82,4.82,0,0,0,183,97h15.83a84.9,84.9,0,0,0-1-25Z"/><path class="cls-3" d="M50.68,98.08V82.72a4.82,4.82,0,0,0-4.81-4.8H29.92a85.16,85.16,0,0,0,.76,25H45.87A4.82,4.82,0,0,0,50.68,98.08Z"/><path class="cls-3" d="M74.45,38.47,87.19,29.9a4.81,4.81,0,0,0,1.31-6.67L79.71,10.15A85,85,0,0,0,58.65,23.59l9.13,13.57A4.83,4.83,0,0,0,74.45,38.47Z"/><path class="cls-3" d="M154.84,136.38,142.09,145a4.82,4.82,0,0,0-1.3,6.67l9.05,13.46a85.26,85.26,0,0,0,20.91-13.65l-9.24-13.74A4.81,4.81,0,0,0,154.84,136.38Z"/><path class="cls-3" d="M91.54,147.07l-13.3-7.68a4.81,4.81,0,0,0-6.56,1.76l-8.43,14.6a85.1,85.1,0,0,0,21.94,11.94l8.11-14.05A4.83,4.83,0,0,0,91.54,147.07Z"/><path class="cls-3" d="M136.68,28.07,150,35.75A4.81,4.81,0,0,0,156.54,34l8.39-14.53a85,85,0,0,0-22-11.76l-8,13.8A4.83,4.83,0,0,0,136.68,28.07Z"/><circle class="cls-4" cx="114.51" cy="87.44" r="57.05"/><circle class="cls-5" cx="114.32" cy="86.87" r="52.12"/><path class="cls-6" d="M158.75,51.27l.88,1a70.28,70.28,0,0,1,6.9,11.11c0,.09,0,.15.07.18l0,.6a7.26,7.26,0,0,1-2.34,1.44,1.24,1.24,0,0,1-1.48-.27h0l-.09-.26a53.33,53.33,0,0,0-6.42-10.28c-1.11-1.2-.62-2.06.58-2.79.38-.23.72-.51,1.09-.76l.58,0A.28.28,0,0,0,158.75,51.27Z"/><path class="cls-6" d="M170.7,78l.27,1.28a70.49,70.49,0,0,1,.46,13.07c-.08.06-.09.12,0,.19l-.32.51a7.49,7.49,0,0,1-2.75.08,1.24,1.24,0,0,1-1.15-1h0l.05-.28a52.79,52.79,0,0,0-.46-12.11c-.36-1.59.49-2.09,1.89-2.13.44,0,.88-.08,1.32-.12l.53.26A.3.3,0,0,0,170.7,78Z"/><path class="cls-6" d="M167.61,107.12c-.14.41-.28.83-.41,1.24A70.14,70.14,0,0,1,161,119.85a.12.12,0,0,0-.12.15l-.54.27a7.36,7.36,0,0,1-2.41-1.32,1.22,1.22,0,0,1-.49-1.42h0l.18-.21a52.72,52.72,0,0,0,5.75-10.66c.49-1.56,1.48-1.56,2.71-.88.39.22.8.38,1.2.57l.32.49A.32.32,0,0,0,167.61,107.12Z"/><path class="cls-6" d="M150.55,130.76l-1,.87a69.58,69.58,0,0,1-11.15,6.84.12.12,0,0,0-.18.07l-.6,0a7.5,7.5,0,0,1-1.43-2.36,1.23,1.23,0,0,1,.29-1.47h0l.27-.1a52.58,52.58,0,0,0,10.3-6.37c1.21-1.1,2.07-.61,2.79.6.23.38.5.73.76,1.09l0,.58A.32.32,0,0,0,150.55,130.76Z"/><path class="cls-6" d="M123.82,142.94l-1.28.27a69.74,69.74,0,0,1-13.08.45.12.12,0,0,0-.19,0l-.5-.32a7.07,7.07,0,0,1-.08-2.75,1.2,1.2,0,0,1,1-1.14h0l.28,0A52.12,52.12,0,0,0,122,139c1.59-.36,2.1.49,2.13,1.89,0,.45.08.89.12,1.33l-.26.52A.29.29,0,0,0,123.82,142.94Z"/><path class="cls-6" d="M94.75,140.22l-1.25-.41A69.84,69.84,0,0,1,82,133.57a.12.12,0,0,0-.15-.12l-.27-.53a7.36,7.36,0,0,1,1.32-2.41,1.23,1.23,0,0,1,1.42-.5h0l.22.18a52.76,52.76,0,0,0,10.67,5.74c1.56.49,1.56,1.48.88,2.71-.21.39-.38.8-.57,1.2l-.48.32A.31.31,0,0,0,94.75,140.22Z"/><path class="cls-6" d="M70.79,123.23c-.29-.32-.59-.64-.88-1a69.88,69.88,0,0,1-7-11.06.12.12,0,0,0-.07-.18l0-.6A7.24,7.24,0,0,1,65.21,109a1.22,1.22,0,0,1,1.48.26v0l.1.27a53.26,53.26,0,0,0,6.5,10.22c1.12,1.19.64,2.06-.56,2.8-.37.23-.72.51-1.08.77l-.58,0A.32.32,0,0,0,70.79,123.23Z"/><path class="cls-6" d="M58.53,97l-.3-1.28a69.57,69.57,0,0,1-.63-13.06.13.13,0,0,0,0-.2L58,82a7.22,7.22,0,0,1,2.74-.12,1.22,1.22,0,0,1,1.16,1h0l0,.28a52.71,52.71,0,0,0,.62,12.1c.38,1.59-.46,2.1-1.86,2.16-.45,0-.89.09-1.33.13l-.52-.25A.31.31,0,0,0,58.53,97Z"/><path class="cls-6" d="M60.85,67.79l.39-1.25a69.43,69.43,0,0,1,6-11.6c.1,0,.13-.06.12-.16l.53-.27a7.32,7.32,0,0,1,2.44,1.28,1.22,1.22,0,0,1,.51,1.41h0l-.18.22a53,53,0,0,0-5.57,10.76c-.47,1.57-1.45,1.59-2.69.93-.39-.21-.81-.37-1.21-.55l-.33-.48A.31.31,0,0,0,60.85,67.79Z"/><path class="cls-6" d="M77.63,43.56l1-.89a69.8,69.8,0,0,1,11-7.07.12.12,0,0,0,.18-.07l.6,0a7.35,7.35,0,0,1,1.48,2.32,1.22,1.22,0,0,1-.25,1.48h0l-.26.1A53,53,0,0,0,81.17,46c-1.18,1.13-2,.65-2.79-.54-.24-.37-.52-.71-.78-1.07l0-.58A.32.32,0,0,0,77.63,43.56Z"/><path class="cls-6" d="M104.8,30.86l1.28-.28a69.65,69.65,0,0,1,13.07-.51.12.12,0,0,0,.19,0l.51.32a7.28,7.28,0,0,1,.09,2.75,1.22,1.22,0,0,1-1,1.15h0l-.28,0a52.81,52.81,0,0,0-12.11.52c-1.59.37-2.1-.48-2.14-1.89,0-.44-.08-.88-.12-1.32l.25-.52A.3.3,0,0,0,104.8,30.86Z"/><path class="cls-6" d="M134.88,33.66l1.23.43a70.5,70.5,0,0,1,11.4,6.42.12.12,0,0,0,.15.12l.26.54a7.27,7.27,0,0,1-1.36,2.39,1.22,1.22,0,0,1-1.42.48h0l-.21-.19A52.73,52.73,0,0,0,134.35,38c-1.54-.52-1.53-1.5-.83-2.72.22-.38.39-.8.59-1.19l.49-.32A.29.29,0,0,0,134.88,33.66Z"/><rect class="cls-5" x="102.1" y="6.83" width="20.26" height="20.26" rx="9.58" ry="9.58"/><circle class="cls-7" cx="106.3" cy="11.89" r="1.94"/><circle class="cls-7" cx="106.3" cy="17.22" r="1.94"/><circle class="cls-7" cx="106.3" cy="22.56" r="1.94"/><circle class="cls-7" cx="118.17" cy="11.89" r="1.94"/><circle class="cls-7" cx="118.17" cy="17.22" r="1.94"/><circle class="cls-7" cx="118.17" cy="22.56" r="1.94"/><rect class="cls-5" x="106.31" y="146.17" width="20.26" height="20.26" rx="9.58" ry="9.58"/><circle class="cls-7" cx="116.44" cy="156.3" r="1.94"/><rect class="cls-5" x="166.01" y="110.62" width="20.26" height="20.26" rx="9.58" ry="9.58" transform="translate(-15.96 214.05) rotate(-60.34)"/><circle class="cls-7" cx="168.79" cy="123.4" r="1.94"/><circle class="cls-7" cx="176.14" cy="120.75" r="1.94"/><circle class="cls-7" cx="183.94" cy="118.36" r="1.94"/><rect class="cls-5" x="43.13" y="42.9" width="20.26" height="20.26" rx="9.58" ry="9.58" transform="translate(-19.18 73.07) rotate(-60.34)"/><circle class="cls-7" cx="45.91" cy="55.67" r="1.94"/><circle class="cls-7" cx="55.18" cy="60.95" r="1.94"/><circle class="cls-7" cx="51.78" cy="45.36" r="1.94"/><circle class="cls-7" cx="61.05" cy="50.64" r="1.94"/><rect class="cls-5" x="163.78" y="40.86" width="20.26" height="20.26" rx="9.58" ry="9.58" transform="translate(121.21 -122.41) rotate(56.75)"/><circle class="cls-7" cx="165.99" cy="49.1" r="1.94"/><circle class="cls-7" cx="181.42" cy="53.17" r="1.94"/><rect class="cls-5" x="43.46" y="114.22" width="20.26" height="20.26" rx="9.58" ry="9.58" transform="matrix(0.55, 0.84, -0.84, 0.55, 128.2, 11.36)"/><circle class="cls-7" cx="54.58" cy="116.6" r="1.94"/><circle class="cls-7" cx="45.66" cy="122.45" r="1.94"/><circle class="cls-7" cx="61.09" cy="126.53" r="1.94"/><circle class="cls-7" cx="53.59" cy="124.35" r="1.94"/><circle class="cls-7" cx="52.17" cy="132.38" r="1.94"/></svg>