<svg xmlns:dc="http://purl.org/dc/elements/1.1/" xmlns:cc="http://creativecommons.org/ns#" xmlns:rdf="http://www.w3.org/1999/02/22-rdf-syntax-ns#" xmlns:svg="http://www.w3.org/2000/svg" xmlns="http://www.w3.org/2000/svg" xmlns:sodipodi="http://sodipodi.sourceforge.net/DTD/sodipodi-0.dtd" xmlns:inkscape="http://www.inkscape.org/namespaces/inkscape" version="1.1" x="0px" y="0px" viewBox="0 0 100 100"><g transform="translate(0,-952.36218)"><path style="text-indent:0;text-transform:none;direction:ltr;block-progression:tb;baseline-shift:baseline;color:#000000;enable-background:accumulate;" d="m 48.889157,1051.3616 c -14.57136,0 -27.28639,-8.0457 -33.9507,-19.9462 -3.05558,-2.752 -5.6724702,-5.9654 -7.7245702,-9.5355 -10.72225,-18.655 -4.38218,-42.54219 14.2032302,-53.30469 3.28206,-1.9007 6.74098,-3.2381 10.24751,-4.0955 15.06808,-14.8018 39.23664,-14.8346 54.35226,-0.031 15.658103,13.9893 15.875043,41.53489 1.21476,54.49299 -3.10205,18.4173 -19.10541,32.4205 -38.34249,32.4205 z m -8.0049,-2.8449 0,-6.0653 c 0.2156,-1.8875 1.36079,-2.9083 2.52295,-3.6263 1.43487,-0.8634 3.33305,-1.4236 5.48195,-1.4381 2.14223,0.01 4.05738,0.5724 5.48194,1.4381 1.42457,0.8659 2.44911,2.0931 2.46066,3.5953 10e-6,2.0294 0,4.0648 0,6.0963 7.53864,-1.6596 14.19777,-5.6243 19.21796,-11.1299 l -5.26392,-3.0639 c -1.29077,-0.7651 -1.8412,-2.2915 -1.86884,-3.9705 -0.0276,-1.6791 0.46473,-3.5961 1.52622,-5.4712 1.08888,-1.6075 2.45026,-3.2096 3.95572,-4.0641 1.45926,-0.8051 3.05882,-1.0848 4.36064,-0.3438 l 5.26392,3.0638 c 1.09295,-3.5027 1.68196,-7.2591 1.68196,-11.1298 0,-3.8945 -0.6072,-7.6352 -1.71311,-11.1612 -1.74971,1.0135 -3.51108,2.044 -5.26387,3.0326 -1.56978,0.762 -2.98962,0.2593 -4.36065,-0.3752 -1.46248,-0.8156 -2.86839,-2.204 -3.95572,-4.06419 -1.06408,-1.8662 -1.56112,-3.7686 -1.52622,-5.4399 0.0349,-1.6714 0.60912,-3.2095 1.89999,-3.9706 l 5.23277,-3.0325 c -5.01675,-5.5038 -11.66308,-9.4669 -19.18681,-11.1299 0,2.0314 0,4.0665 0,6.0961 -0.0116,1.502 -1.03609,2.7295 -2.46066,3.5953 -1.42456,0.8658 -3.33971,1.3987 -5.48194,1.4069 -2.1489,-0.015 -4.04708,-0.5433 -5.48195,-1.4069 -1.43488,-0.8636 -2.50803,-2.0909 -2.52295,-3.5953 -10e-6,-2.0297 0,-4.0646 0,-6.0961 -7.51484,1.6681 -14.16378,5.6356 -19.18681,11.1299 l 5.20162,3.0325 c 1.29078,0.7612 1.86512,2.2993 1.89999,3.9706 0.0349,1.6712 -0.46238,3.5736 -1.52622,5.4399 1.6e-4,0.01 1.6e-4,0.021 0,0.031 -1.08718,1.86029 -2.49321,3.24879 -3.95572,4.06409 -1.48503,0.83 -2.94817,0.8697 -4.36065,0.3752 -1.73791,-1.0345 -3.50897,-2.0466 -5.26387,-3.0636 -1.11036,3.526 -1.71311,7.2667 -1.71311,11.1612 0,3.8707 0.5846,7.6271 1.68196,11.1298 l 5.26392,-3.0638 c 1.30193,-0.7415 2.90112,-0.4611 4.36064,0.3438 1.45951,0.8056 2.87753,2.175 3.95572,4.0331 1.06166,1.8754 1.5539,3.8234 1.52622,5.5025 -0.0277,1.679 -0.57812,3.2053 -1.86884,3.9705 l -5.26392,3.0639 c 5.29539,5.9075 13.20617,9.9793 19.24903,11.1297 z m 7.97375,-15.1314 c -11.54823,0 -20.93107,-9.3866 -20.93107,-20.978 0,-11.5913 9.38284,-21.00929 20.93107,-21.00929 11.54823,0 20.89992,9.41799 20.89992,21.00929 0,11.5914 -9.35169,20.978 -20.89992,20.978 z m -43.1392002,-19.8837 4.2983502,-2.5011 c 0.21295,-5.9829 1.78133,-11.62809 4.39179,-16.63229 -1.17379,0.4774 -2.4048,0.2949 -3.42622,-0.063 -1.7385802,-1.0349 -3.5088302,-2.0464 -5.2638702,-3.0635 -2.23661,7.1172 -2.31828,14.88619 0,22.25979 z m 88.2718302,-9.9733 c 2.27435,-7.24999 2.28343,-15.05039 0,-22.29089 -1.76013,1.0133 -3.53186,2.0436 -5.29501,3.0322 -1.56977,0.762 -2.98962,0.2593 -4.36064,-0.3752 -1.46249,-0.8156 -2.8684,-2.2039 -3.95573,-4.0642 -1.06408,-1.8662 -1.56113,-3.7686 -1.52622,-5.4399 0.0349,-1.6714 0.60912,-3.2094 1.89999,-3.9706 l 5.23277,-3.0326 c -0.43604,-0.4761 -0.87406,-0.9489 -1.33934,-1.4068 -5.11789,-5.0395 -11.32586,-8.2775 -17.84748,-9.723 0,2.0314 0,4.0666 0,6.0962 -0.0116,1.5018 -1.03608,2.7294 -2.46064,3.5952 -2.31854,1.0752 -4.25895,1.5087 -6.47868,1.3439 7.79259,4.1015 13.28448,9.826 16.50814,15.6634 5.22827,4.5619 9.21584,10.505 11.43111,17.25769 1.0231,-0.28469 2.04242,-0.25409 2.92787,0.2501 l 5.26391,3.0637 z m -73.22762,-18.03879 c 4.01888,-4.2213 8.96468,-7.5457 14.51471,-9.6292 -1.3573,-0.8577 -2.35283,-2.0514 -2.36721,-3.5015 -10e-6,-2.0402 0,-4.0854 0,-6.1274 -3.57223,0.8018 -7.06367,2.1617 -10.40324,4.0956 l -0.0934,0 c -3.32892,1.9352 -6.25118,4.3308 -8.72128,7.0344 l 5.23277,3.0638 c 1.92837,1.8431 2.09663,3.0311 1.83765,5.0643 z m 49.33754,-5.7838 c -5.4124,-7.0418 -13.0053,-11.662 -21.24255,-13.4747 0,2.0418 0,4.0874 0,6.1274 -0.003,0.3643 -0.0736,0.7008 -0.18688,1.0316 8.16262,0.024 15.64754,2.7295 21.42943,6.3157 z m -17.87863,-14.6315 c -0.81598,-0.754 -1.35999,-1.6613 -1.37049,-2.7198 -10e-6,-2.0194 0,-4.0438 0,-6.065 -5.50852,1.2182 -10.79773,3.6966 -15.38683,7.472 6.36417,-0.538 11.44656,-0.3038 16.75732,1.3128 z" fill="#E6453A" stroke="#4F3333" stroke-width="1.9"/></g></svg>