<svg xmlns="http://www.w3.org/2000/svg" xmlns:xlink="http://www.w3.org/1999/xlink" version="1.1" x="0px" y="0px" viewBox="0 0 100 125" enable-background="new 0 0 100 100" xml:space="preserve" fill="#E6453A" stroke="#4F3333" stroke-width="1.9"><path d="M50,21.5c-15.715,0-28.5,12.785-28.5,28.5S34.285,78.5,50,78.5S78.5,65.715,78.5,50S65.715,21.5,50,21.5z M72.793,41.033  l-6.484,3.242c-0.763-2.165-1.941-4.129-3.444-5.805l5.103-5.102C70.02,35.583,71.666,38.178,72.793,41.033z M50,63.303  c-7.335,0-13.303-5.968-13.303-13.303S42.665,36.697,50,36.697S63.303,42.665,63.303,50S57.335,63.303,50,63.303z M26.748,57.704  l6.546-3.273c0.618,2.325,1.699,4.46,3.154,6.294l-5.116,5.116C29.318,63.472,27.749,60.717,26.748,57.704z M31.678,33.759  l5.102,5.102c-1.339,1.586-2.386,3.418-3.089,5.414l-6.484-3.242C28.269,38.344,29.79,35.887,31.678,33.759z M52.852,25.671v7.281  c-0.93-0.155-1.879-0.256-2.852-0.256c-1.234,0-2.437,0.135-3.599,0.382v-7.313C47.576,25.593,48.777,25.5,50,25.5  C50.965,25.5,51.916,25.562,52.852,25.671z M46.401,74.233v-7.313c1.162,0.247,2.364,0.382,3.599,0.382  c0.973,0,1.922-0.1,2.852-0.256v7.281C51.916,74.438,50.965,74.5,50,74.5C48.777,74.5,47.576,74.407,46.401,74.233z M68.322,66.241  l-5.102-5.102c1.623-1.923,2.821-4.206,3.486-6.708l6.546,3.273C72.194,60.888,70.502,63.784,68.322,66.241z"/><path d="M51.041,47.684c-2.26-0.656-2.361-0.907-2.361-1.679c0-0.754,0.638-1.062,1.172-1.189c0.841-0.196,1.575,0.067,1.678,0.273  c0.495,0.987,1.695,1.389,2.683,0.895c0.988-0.494,1.389-1.695,0.895-2.684c-0.646-1.293-1.922-2.152-3.443-2.445  c-0.154-0.951-0.973-1.679-1.968-1.679c-1.104,0-2,0.896-2,2v0.193c-1.862,0.877-3.018,2.585-3.018,4.636  c0,3.997,3.284,4.95,5.246,5.52c1.998,0.58,1.998,0.75,1.998,1.12c0,0.838-0.739,1.27-1.359,1.484  c-1.178,0.406-2.309,0.142-2.532-0.093c-0.229-1.067-1.274-1.756-2.348-1.541c-1.083,0.217-1.786,1.271-1.569,2.354  c0.337,1.685,1.714,2.881,3.591,3.31c0.044,1.066,0.915,1.919,1.992,1.919c1.104,0,2-0.896,2-2V57.95  c2.545-0.809,4.225-2.819,4.225-5.305C55.923,49.101,52.867,48.214,51.041,47.684z"/></svg>